<svg id="Layer_1" data-name="Layer 1" xmlns="http://www.w3.org/2000/svg" viewBox="0 0 512 512"><title>record-handdrawn</title><path d="M367.63,37.71c-.47.81,16.21,8.56,15.86,9.16-1.14,2-45-23.91-46.69-20.91-2.47,4.28,74.27,38.09,72.19,41.69-1.59,2.75-89.87-53.51-92.78-48.48-3.47,6,105.84,55.31,103.32,59.67C416.7,83.76,320.35,17.06,317.48,22,315,26.34,436.7,80.42,432.17,88.28c-2.9,5-113.89-75-118-67.86-4.27,7.4,114.68,54.16,109.45,63.22C420,89.86,297.36,5,292.4,13.56c-4.23,7.33,144.21,71.2,139,80.27-3.48,6-138.61-85.19-143.94-76C281,29,450.2,101.34,445.64,109.25,439.73,119.5,287.51,9.51,282.73,17.79c-5.21,9,178,87.78,171.47,99C449.83,124.39,275.64,6.65,270.8,15c-6.3,10.91,190,99.86,185.73,107.27S270.76,1.47,263.54,14c-5.5,9.52,199.08,102.65,193.74,111.9-5.63,9.75-190.33-119.2-195.33-110.54C255.83,26,470,118.63,462.71,131.3,458.82,138,256.66,6.68,252.36,14.13c-8.68,15,212.94,104.14,204.78,118.28C452.62,140.25,263.5,4.56,255.95,17.64,248.07,31.3,468.4,121.08,460.06,135.53,453,147.77,239.44-5,231,9.69c-9.7,16.8,247.23,126.87,240.34,138.81C466,157.64,239-3.83,229.37,12.83c-9,15.64,253.95,132.17,247.67,143-5,8.74-239.47-150.7-245-141.11C222.1,32,475.41,138.47,468.11,151.13,463,160,237.46,1.71,229.87,14.86,222.73,27.22,481.1,141.6,473.15,155.38,463.39,172.28,226.47-5.23,216.67,11.75c-9.29,16.1,270.08,137,261.86,151.24-8,13.85-255.39-161.06-261.68-150.15-10,17.27,266.25,130,256,147.84C465.21,173.85,229.13,5.5,220.2,21,209.3,39.85,479.71,155.63,473.12,167,468.39,175.25,217.86.86,208.24,17.53c-8.55,14.82,275.63,135.53,265.39,153.28C467.36,181.68,220.39,9.3,213.38,21.44,204.65,36.57,484.57,165.77,479.25,175,472.07,187.43,201.51-1,192.36,14.89,182.29,32.33,489.7,165.54,480.57,181.36,469.26,201,199.81-3.16,188.76,16c-7.29,12.63,313,156.32,302.4,174.65C481.54,207.3,208.9,8,200,23.35,190,40.7,495.32,173,486.26,188.67,476.24,206,202.77,13.13,194.83,26.89c-7.46,12.92,304,152,293.81,169.69C483,206.39,184.47,9.75,176.75,23.13c-8.38,14.51,316.37,158.82,306,176.75C474.46,214.27,193.87,6.93,181.85,27.76,173.08,43,490.6,189.43,483.39,201.92c-12,20.82-300.12-195-310-177.93C160.46,46.47,499,188.08,488.61,206,478.83,223,180,12.12,172.27,25.54,159.89,47,503.29,200.72,496.36,212.72,489.93,223.86,181.66,11.28,170.22,31.11c-8.49,14.71,331,162.76,318.69,184.06C477.17,235.52,178.7,15.47,167,35.69c-11.3,19.57,334,169.05,323.69,187C483.87,234.51,162.95,15.11,153,32.42,139.84,55.15,505.33,213.28,495.52,230.27c-12.15,21-338.83-210.19-348.07-194.18C140.28,48.52,501.26,214.52,490,234,478.25,254.38,161.16,27.4,153.43,40.79c-11,19,358.8,177.38,345.88,199.77-14.39,24.94-349-227.13-361.08-206.25-12.81,22.19,359.48,190,351.86,203.22C479.39,256.09,146.43,20.05,137.63,35.29,123.92,59.06,494,220,484.89,235.86c-6.16,10.67-339.34-213.89-350-195.5C125.86,56.1,507.62,232.89,497.79,249.92,489.36,264.52,151.33,35.51,144.5,47.35,136,62,507.14,239.23,499.54,252.4c-12.36,21.41-355.48-235.68-369-212.27-13.74,23.81,378.9,192.52,367.51,212.26C485.58,274,142.41,19.95,130.69,40.25,120.35,58.17,508.27,240.33,500.48,253.83,493.47,266,143.19,36.35,136.49,48,121.44,74,491.86,237.52,485.07,249.29c-10.86,18.81-338-211-345.47-197.94C131.73,65,508.73,239.16,497.74,258.21,490.35,271,142.72,38.6,135.86,50.49c-9,15.63,359.33,191.06,352.2,203.42C479.31,269.06,134.46,31.4,124.32,49c-10.71,18.55,384.28,203.9,376.47,217.44C492.81,280.24,128.72,33.18,119,50c-11.78,20.41,382.5,200.66,373.73,215.86C478.23,291,132.79,39.78,122.27,58c-9.9,17.16,381,192.24,369,213.12-7.48,13-366.09-236.06-377.54-216.22C99,80.4,499.77,251.19,488.22,271.2c-8.3,14.38-361.74-231.65-372.76-212.55-13.22,22.91,383.18,194.08,371.39,214.5-12.13,21-355.58-233-370-208C109,78.81,508.41,259.66,494.69,283.42,485.33,299.63,113.81,49.07,105.8,62.94,92.58,85.85,496.1,269.7,488,283.7,474,308.08,107.1,42.07,96.57,60.31c-11.82,20.48,410.74,207.78,398,229.87C484.28,308,114.11,56.45,105.29,71.74,90.34,97.64,499.71,283.38,492.71,295.5,480.35,316.92,109.07,56,100.32,71.2c-7.3,12.64,394.5,206,385,222.39C475.35,310.95,99.23,49.77,87.85,69.48c-15,26,412,204.88,397.72,229.71-9.93,17.21-381-236.46-390.26-220.39C83.54,99.19,491.78,280.4,479.93,300.93,467.55,322.37,94.58,62.67,85.85,77.8,77.72,91.89,492,290.12,482.38,306.83c-11.52,20-377.7-242.56-389-223C86.25,96.2,496,283.19,481.68,308,473.65,321.95,84.92,64.25,76.47,78.9,62.65,102.85,495,298.94,485.63,315.21,474.57,334.38,96.36,66,83.35,88.49c-16,27.75,405.81,217.51,398.5,230.16C473.6,332.95,98.58,67.6,85.32,90.58,75.9,106.91,493,303.81,483.41,320.51c-10,17.33-386.56-249.23-400.7-224.72C66.13,124.51,502.35,301.36,486.42,329,475.55,347.79,92.16,78.63,81.05,97.87s416.73,220.57,408,235.66c-14,24.23-398-261-414.24-232.76-12,20.83,425.82,208.31,409.53,236.53C471,360.39,79.8,76.86,67.94,97.41,60,111.17,491.08,322.67,482.8,337c-8.68,15-392.47-258.84-406.6-234.37C67.07,118.46,485,308.58,472,331.23,460.17,351.69,84.74,80.91,72.88,101.46c-8.21,14.23,419,215.41,407.49,235.35C473,349.64,69.08,81.79,60.58,96.51,44.66,124.1,501.82,313.9,485.61,342,471.27,366.83,82.6,82.32,68.45,106.86c-9.51,16.48,421.93,205.2,405.27,234.07C463.49,358.64,74.27,82.58,59.88,107.52c-14.28,24.75,424,218.18,412.45,238.22-11.19,19.38-396.71-255.42-409-234.1C48.06,138,477.93,326.61,467.33,345,458.82,359.73,68.68,81.47,54.08,106.77,37.56,135.4,485.52,320.45,470.15,347.08,462.12,361,70.76,97.73,59.5,117.24c-8,13.94,420.14,216.7,408.9,236.17C456.2,374.55,71.12,97.82,58.49,119.71,43.66,145.4,478.34,343.12,470.08,357.43,456.21,381.47,63.41,86.1,47.49,113.68c-7.87,13.64,429.85,230,421.95,243.7C458.66,376.06,67.88,96.11,53.56,120.92c-8.35,14.46,416.55,222.92,408.9,236.17C454,371.69,65.28,91.39,49.39,118.92,34.87,144.1,470.73,341,461.53,357,447.67,381,59.35,108.33,49.31,125.73,35.5,149.66,471.07,341.89,459.2,362.46c-11,19.12-401-266.12-417.39-237.64C33.67,138.91,472.75,352.3,463.48,368.36,453.8,385.14,69.25,108.19,53,136.37,42.75,154.1,468.78,349,456.89,369.65,448.09,384.89,67,111.37,52.45,136.6,43.69,151.78,480.29,361.77,470.8,378.22c-10,17.3-413.94-258.29-424.49-240C31,164.66,476.24,358.25,464,379.46c-13.41,23.23-400.23-268-416.85-239.23C38.07,156,479.72,356.56,465.22,381.68c-7.65,13.26-414.73-269-427.78-246.35-12.3,21.31,440.55,216.61,424.17,245-14,24.29-410.93-258.84-421.34-240.81-7.74,13.41,423.09,221.85,413.34,238.73-9.3,16.11-394.3-255.15-409.2-229.33-8.46,14.66,416.83,208.71,403,232.74C437.62,398.57,47.86,129.2,36,149.7c-15,26,426.56,209.2,410.48,237.08C430.78,414,44.36,143.15,36.47,156.83c-11,19,431.5,223.62,420.42,242.82C443.74,422.42,32.69,139.77,24.45,154c-14.36,24.89,436.4,223.83,424.19,245C438.2,417.14,44.76,140.53,30.89,164.56c-14.48,25.1,426.55,208.8,410.29,237C426.45,427.06,37.11,138.69,24.1,161.24,15.91,175.43,465,381.88,450.28,407.39c-9.12,15.8-402-263.35-416.13-238.85C25.32,183.83,457.33,393.69,449,408.14,433.91,434.27,39.94,153.48,31.74,167.69,19.8,188.38,455.85,381.83,442.52,404.94,434.91,418.12,40.68,157.38,32.34,171.84S460.68,379.77,443.59,409.37C434,425.91,33.24,146.16,21.25,166.93c-14.88,25.79,438.05,220.5,424,244.88C429.89,438.39,31.53,149.4,18.47,172,9.62,187.36,445,384,430.14,409.81,419.5,428.25,38.37,159.57,25.64,181.63,10,208.67,441.79,383.28,425,412.3,417.45,425.45,29.7,171.1,21.62,185.11c-12,20.72,421,221.68,411.7,237.79C419.23,447.31,26.21,171.89,17.48,187,6.22,206.53,442.78,404,430.36,425.49,419.94,443.54,39.84,174,26.52,197.06,18.24,211.4,439.17,400.36,424,426.64,413.9,444.15,23.7,184.4,16.62,196.67c-9.24,16,428.21,210,412,238-15.92,27.59-390-260.56-405.39-233.87C7.18,228.68,430.62,413.91,421,430.51,408.71,451.88,23.29,185.18,14,201.27c-11.32,19.61,413.26,204.12,398.3,230C398.18,455.77,34.08,186.6,19.91,211.14,7.12,233.3,418.07,419,408.51,435.59,399.89,450.53,22.25,188.43,9.81,210-5.87,237.16,415.32,426.63,407.72,439.8,396,460.19,23.07,197.21,12,216.46-.61,238.25,417.7,428.53,408.06,445.23,397.37,463.75,17.41,198.95,8.15,215,.3,228.6,426.7,425.43,413.15,448.91,405.28,462.55,32.53,193,16.67,220.46,9.45,233,413,415.1,398.18,440.81,384,465.37,22.49,195.08,8.85,218.72-4.61,242,419.77,423.3,405.6,447.86,390,474.81,16.68,194.58,4,216.5c-13.89,24.07,415.52,202.9,399.47,230.72C390.26,470.15,28.54,207.59,16,229.34c-8.26,14.31,386.26,206.87,379.24,219C384.73,466.57,27.13,213.57,16.74,231.57,8.6,245.68,400,436.17,392.77,448.75c-12,20.72-369-243.59-383-219.35C-1.59,249,405.79,430.23,393.71,451.17,384.08,467.85,25.48,226.2,18,239.24,10.31,252.49,410.14,437.74,398,458.74,383.46,484,21.07,230.89,14,243.1c-7.4,12.82,385.63,204,377.51,218C382.35,477.07,23.25,235,14.81,249.59,2,271.74,389.59,433.69,375.58,458,361.69,482,11.37,229.5,1.83,246c-8.38,14.53,393.93,207,385,222.39-8,13.87-369.18-240.68-383.3-216.22C-10.66,276.84,383,441.09,369.88,463.76,363.32,475.12,26.43,244.49,16.43,261.81,8.61,275.36,377.54,454.49,370.67,466.41,357.26,489.63,10.69,246,3.74,258-4.47,272.24,386.67,456.4,376.8,473.5,370.25,484.85,25.35,249.07,15.72,265.76c-13.05,22.62,362,188.6,353.17,204C356,492.11,17.73,245.05,8,261.88c-9.57,16.58,364.74,192.24,356.77,206.06-7.17,12.42-341.79-218-352.73-199.1C2.11,286.06,375,462.63,368.11,474.48c-12.83,22.24-343-215.91-353.55-197.71-10,17.3,357.17,190.29,350.24,202.29C358.74,489.56,21.05,267.57,14.2,279.45,0,304,371.47,459.18,359.95,479.14,351.12,494.43,15.71,254,2.29,277.26c-7.09,12.29,357.63,175.6,344.23,198.81C337.72,491.31,22.42,266.88,12.6,283.9-.62,306.81,355.47,466.05,348.6,478,335,501.55,16.15,270.58,6.52,287.28-4,305.53,353.78,463.13,343.09,481.67,336.26,493.48,19.1,277,11,291,2.64,305.49,356.34,468.42,346.8,484.95,338.75,498.9,23.56,277.41,14,294,1.55,315.53,347.68,471.51,341.08,482.94,331.56,499.44,20.76,267.61,7.39,290.77-4.53,311.42,356.57,467.22,345.66,486.14,336.19,502.54,12.86,277.35,3.91,292.87c-9.69,16.79,346.77,175.88,336.21,194.18C328.79,506.68,25,283.42,14.32,302,4.22,319.48,348.06,469.08,337,488.32c-8,13.8-315.46-205-326.45-186-12.11,21,329.81,168.8,320.42,185.06C320.07,506.24,17.77,280.1,6,300.58-3.71,317.32,330,474.2,324.12,484.34c-8.73,15.12-301-183-306.49-173.58C7.71,327.95,326.22,473.51,319.51,485.12S30,293,18.91,312.1c-6.4,11.1,308.46,163.08,301.93,174.38C312.91,500.23,27,302.09,18.14,317.39S319.05,478.37,313.51,488C306.3,500.47,15.21,298,7.4,311.47c-6.15,10.65,326.36,161.7,314.76,181.79C315,505.59,27.81,300.36,17.65,318c-5.56,9.63,302.84,153.16,293.42,169.47C302.92,501.56,21.74,310.86,16.42,320.07,5.65,338.74,332.26,473.59,319.75,495.26c-7.21,12.49-293.2-181.56-301.62-167C6.18,349,318.67,476.55,307.71,495.54c-7.68,13.31-275.34-178.3-284-163.31C17.49,343,309.14,477.33,300.59,492.14,292.14,506.79,23.32,319.57,14.85,334.25,8.55,345.17,313.71,487.81,305.46,502.1,297.7,515.56,26,321.83,14.72,341.43c-5.71,9.89,289,150.1,281.73,162.72C285.52,523.09,25.23,337,19,347.85,12.25,359.53,284.84,483.76,277.21,497,272.39,505.34,31.13,337.6,21.86,353.65,17,362,280.13,479,269.8,496.85,263.39,508,30.09,343.15,23.3,354.93c-6,10.35,250.42,133.81,245.73,141.93C260.51,511.62,40.41,359.34,35.88,367.2,28,380.77,282,498.3,277.23,506.59c-5.45,9.45-241-150.12-246.34-140.94C21.26,382.35,274,493.34,268.48,502.88c-8,13.8-217.72-141.4-226.56-126.09-4.29,7.43,235.3,114.5,226,130.55-6.19,10.73-226.44-141.26-233.6-128.85C30.09,385.87,253.66,484.73,244.82,500,236.5,514.46,39.24,371.69,33.63,381.42c-4.7,8.14,224.81,115.9,218.78,126.36C244.68,521.15,55.52,377.48,47.73,391S255.25,499.1,250.17,507.9c-8,13.9-196-123.45-200.9-115-5.71,9.89,189,100.48,185.27,107-3.43,5.95-178-109.31-183.63-99.62-4.83,8.38,189.39,97.6,184.29,106.44C228.9,517.67,58.51,394,53.55,402.58,49.87,409,238.76,496.67,233.19,506.33c-5.43,9.4-174-110.74-180.84-98.82C48,415,225.24,499.38,221.78,505.37c-6,10.39-148.95-94.16-154.8-84-4.1,7.11,134.65,67.58,130.24,75.22-2.9,5-132.1-80.82-134.51-76.64C59.08,426.2,204,494,200.77,499.66,198.54,503.52,84.7,429.33,80.29,437c-2.22,3.85,112.24,56.2,108.51,62.67-1.55,2.69-83.71-49.56-86.56-44.62-3.19,5.53,70.33,35.56,68.14,39.35-2,3.47-60.42-35.06-61.59-33s33.62,16.6,32.4,18.72c-.52.89-22.55-11.9-23.11-10.93-.3.51,16.32,8.36,15.86,9.16" fill="none" stroke="#999" stroke-linecap="round" stroke-linejoin="round" stroke-width="1.27"/><path d="M250.32,13.76C392.9,2.71,502.68,122.56,496.05,261.24c8.75,130.37-101.52,255.45-249.68,244.37-132.81.21-243.3-109-239.69-237.76C-5,128,113.85,15.52,250.32,13.76Zm.26,136.34c63.19-4.89,111.86,48.24,108.93,109.33,3.87,57.79-45,113.23-110.67,108.33-58.5.09-107.49-48.31-105.89-105.4C137.76,200.73,190.46,150.88,250.58,150.1Z" fill="none" stroke="#666" stroke-width="3.18"/><path d="M245.05,1C392.13,12.71,492.17,119.13,509.74,259.81,495.37,394.75,381.37,507.7,255.18,511,112.82,501.55,2.72,392.64,2.33,259.52,9.4,123,121.37,10,245.05,1Zm3.19,143.47c65.19,5.19,109.55,52.38,117.32,114.36-6.36,59.82-56.9,109.89-112.84,111.36C190,366,141.19,317.68,141,258.67,144.15,198.54,193.79,148.42,248.24,144.44Z" fill="none" stroke="#4c4c4c" stroke-width="2.39"/></svg>