<svg id="Layer_1" data-name="Layer 1" xmlns="http://www.w3.org/2000/svg" viewBox="0 0 512 512"><title>rewind-arrow-handdrawn</title><path d="M463.34,6.53s3.08,1.76,3.07,1.77c-.26.45-7.63.7-7.9,1.17-.15.26,8,4.39,7.9,4.56-.34.58-9.08-4.08-9.29-3.71s9.54,4.94,9.29,5.36S454.68,11.37,454.29,12c-.18.31,12.33,6.63,12.12,7-.41.71-12.39-3.3-12.74-2.69s5,2.31,4.77,2.75c-.11.2-3.73,2.41-3.83,2.58-.44.76,3.95,1.28,3.51,2-.12.21-7.56,2.4-7.74,2.73-.57,1,14.92,7.4,14.39,8.31s-14.13-6.46-14.5-5.8c-1,1.78,12.5,5.3,11.67,6.74-.56,1-14.61-7-15.11-6.13-1.1,1.9,8.2,2.88,7.39,4.27-.54.93-15.61-6-16-5.39-.59,1,20.39,9.06,19.21,11.09-.54.94-15.6-8.82-16.08-8-.68,1.18,14.53,5.72,13.37,7.72-.43.74-12.74-5.24-13.1-4.62-.78,1.35,23.91,10.61,22.53,13-.74,1.28-29.77-13.11-30.72-11.47-.8,1.39,20,9.22,19,11-.56,1-21.46-9.39-22.05-8.37C429,41.12,456.7,51.39,455.58,53.33,454.36,55.45,422,38.16,421,39.91c-1.64,2.83,44.29,23.44,43.37,25-1.27,2.2-41.18-23.6-42.21-21.82-1.44,2.5,40.48,19.28,38.7,22.35-.78,1.34-37.13-17.86-37.79-16.73-1,1.74,38,18.13,36.38,21-.88,1.52-42.56-22.75-44.12-20.06-1.64,2.85,39.17,20.07,38.07,22s-39.09-18.89-40-17.4c-1.66,2.88,43.62,19.44,41.13,23.75-1.85,3.2-51.19-28.07-52.2-26.33-2,3.39,52,26.78,50.58,29.2-1.14,2-45.09-24.69-46-23.08-1.75,3,48.7,23.24,46.59,26.9C452.11,87.24,395,46.46,392.88,50.2,391,53.39,453.5,79.31,450.95,83.73c-1.87,3.25-50.62-31-52.38-27.93s65.73,31.49,62.93,36.34c-1.63,2.82-58.18-32.27-60.3-28.59s51.26,25.68,49.56,28.62c-1.47,2.54-59.3-32.88-60.39-31-2.46,4.26,68.42,34,66,38.12-2.17,3.76-64.79-40.41-67-36.54C387.49,66,459.81,98,457.45,102c-2.12,3.67-71.8-44.1-74-40.29-3.46,6,83.34,40.5,80,46.21-1.47,2.55-83.27-50.85-86.34-45.53-2,3.44,81.8,40.1,78.71,45.44-2.38,4.12-68.8-40.56-71-36.82C383,74.42,464,112.58,462.19,115.7c-2.61,4.52-83.58-50.48-86.27-45.83-2.33,4,91.35,45.53,88.23,50.94-2.75,4.77-92.72-56.51-96-50.84s92.9,45.19,89.25,51.53c-2.68,4.64-77.59-47.71-79.7-44.07s78.72,37.74,75.38,43.52c-2.68,4.63-87.65-56.37-90.31-51.78-1.77,3.07,96.84,50.49,94.49,54.56-1.91,3.31-86.46-55.51-89.1-50.93-3.93,6.8,100.2,49,96.35,55.63-1.92,3.32-95.72-59.51-98.09-55.41-3.73,6.45,88.8,42.09,84.83,49-1.46,2.53-78.37-43.55-80.44-40-3,5.23,88.44,46.45,86.44,49.91-2.33,4-99.84-62.09-102.82-56.93-3.22,5.57,106.07,54.71,103.24,59.61-1.84,3.18-92-57.56-95.5-51.45-3.65,6.33,97.83,46.77,93.63,54.06-3.54,6.13-104-61.59-107.11-56.21-2.48,4.3,107.48,56.2,104.94,60.59-3.36,5.82-96.93-55.07-99.55-50.54-4.46,7.73,103.36,48.66,98.59,56.92-3.2,5.55-99-60.45-101.34-56.34-2.74,4.75,100.79,53.05,98.56,56.91-3.69,6.39-103.63-62.11-107.71-55-4.83,8.36,122.8,65.36,120.4,69.52-4.39,7.6-120.95-71.78-123.69-67-3.61,6.26,130.84,66.15,126.77,73.19-4.82,8.35-122.19-78.17-126.36-70.93-4.65,8.05,117.32,59.23,113.64,65.61C448.81,171.08,328.7,87,324.49,94.29S464.14,166,460.28,172.69c-3.66,6.34-139-85.2-144.06-76.39s152.52,81.44,149.66,86.41c-2.67,4.63-138.74-84.12-142-78.46C318,114.38,459.24,175.7,456.34,180.72c-4.63,8-133-85.19-137.36-77.72-5.67,9.82,138.68,68.19,133.54,77.1-5.29,9.16-138.59-83.58-141.19-79.09-3.48,6,148.73,77.16,145,83.69-4.55,7.87-140.47-85.22-144.84-77.66-3.37,5.83,153.59,79.08,149.43,86.28-3,5.13-150.75-94.52-155.14-86.92-6.33,11,156.61,83.51,153.62,88.7-5.35,9.27-139.5-89.9-144.2-81.76-4.48,7.76,154.46,76.75,149.08,86.07-3,5.23-153.69-92.9-158-85.44S460,189,454,199.3c-5.07,8.78-150.19-91.12-153.92-84.67-5.09,8.82,164.51,86.1,160.66,92.76C454.67,218,309.12,113.49,303.61,123c-5.06,8.76,157.46,83.11,154.08,89-4.4,7.62-158.6-102.85-164.38-92.86-5.45,9.43,176.47,89.18,171,98.71C459,226.91,300,120.07,296.21,126.62c-7,12.17,161.31,81.51,156.27,90.23-3.4,5.89-157-102.52-162.28-93.37-6.44,11.15,167.07,89,163.85,94.6-2.91,5-154.53-100.66-160.64-90.08-4.61,8,169.83,88.13,165.54,95.58-3.89,6.73-166.7-107.49-173.24-96.17-5.37,9.3,176.62,85.26,169.38,97.8-7,12.08-178.51-111.35-185-100.05-3.65,6.32,190,93,182.73,105.5-4.88,8.45-177.47-113.59-182.91-104.17-6.31,10.94,201.78,99.57,194.45,112.27-3.75,6.5-187.74-123-195.26-110-3.79,6.56,197.24,101.75,192,110.85-5.66,9.8-173.46-115.76-180.26-104-4.94,8.56,176.52,88.14,170.55,98.47-6.22,10.78-179.75-109-184.6-100.59-5.63,9.75,206,100.36,198,114.31-5.68,9.83-190.15-122.45-196.93-110.71-7.47,12.93,190.77,101.59,187.07,108-3.55,6.14-185.39-110.21-189.42-103.24-6.1,10.56,202.47,104.91,197.28,113.9s-203.93-128-209.13-119,202.15,104,196.64,113.53c-7.13,12.34-195.91-122.13-201.33-112.75-4.6,8,217.33,112.49,211.71,122.23C453.84,271.5,255.53,126.4,247.17,140.88c-6.92,12,218,111.3,211.72,122.24-3.76,6.51-192.65-123.12-198-113.79S455.26,249.71,450.12,258.61C443.54,270,257,137.66,250.92,148.15,242.36,163,462.5,255.85,456.24,266.69c-4,7-209.5-135.62-216.94-122.73-6.85,11.87,225.29,120.15,221,127.59C454.06,282.34,246.64,131,237.79,146.3,231.67,156.91,468,266.41,462.47,276S241,134.79,232.52,149.48c-6.28,10.88,238.77,122.53,232.13,134-8.19,14.19-218.51-140.17-224.8-129.27-5,8.72,220.91,117.16,216.41,124.95C450,290.1,245.85,144.34,239.33,155.63s227.55,113,219.58,126.78c-5.76,10-220.22-140.68-227.85-127.47-9.06,15.7,231.73,113.6,223,128.74-7.95,13.77-214.2-129.79-218.27-122.74-5.09,8.82,219.62,117,215.38,124.35-7.56,13.1-214.37-131.71-218.35-124.82C225.43,173.23,472.38,281,464.65,294.34c-7.5,13-226.77-139.42-233-128.72C227.37,173.11,473,284.54,464.14,299.83,455.77,314.33,228.56,152,220.82,165.4,210.69,182.93,473.6,293.63,465.93,306.92c-9.83,17-242.63-152.52-248.7-142-5.37,9.31,246.29,123.7,238.28,137.58C448.39,314.81,217.95,151,208.67,167.08c-6.16,10.66,250.63,126.08,242.56,140-7.67,13.28-238.83-152.46-247.3-137.79-4.64,8,254.57,136.06,249.84,144.25-9.26,16-247-153-253.68-141.44-8.93,15.46,266.89,133.59,258,149-9.48,16.42-245-154-251.67-142.4C199,191.67,461.8,314.1,456.58,323.15c-10.36,18-254.95-160.66-260.8-150.54-10.87,18.83,268.44,131.94,258.46,149.23-9.45,16.38-241.1-157.74-249.44-143.31-7.15,12.38,254.61,134.75,249.3,143.94C446,336.44,203.45,171,198.34,179.84c-9,15.52,262.14,127,251.58,145.25-7.85,13.6-251.2-155.78-258.2-143.65-8.74,15.13,268.6,134,259.49,149.82C444.33,343.15,191.53,170.13,185.27,181c-8,13.88,280.34,147.15,274,158.18-10.57,18.3-261.65-163-269.23-149.83-11.44,19.81,267.6,138.86,260.83,150.6-8,13.82-261.71-164.37-267.71-154-10,17.3,274,145.47,268.49,155C444,354.22,190.35,176.64,182.18,190.79c-8.34,14.44,287.56,139.79,276.19,159.47-7.89,13.67-277.27-178.2-285.2-164.46C167,196.56,472.23,334.51,461.86,352.47c-8,13.83-277.39-171.79-282.94-162.18-8.18,14.18,297.14,146.32,286.21,165.25-11.28,19.55-287.65-176.79-294.48-165-7.89,13.67,291.08,145.81,281.45,162.5-5.33,9.23-272.68-168-280.08-155.16C164.9,210.26,476.65,346.54,464.85,367c-5.76,10-288.69-181.75-297.62-166.27-6.95,12,303.83,152.73,294,169.75C454.1,382.8,166.72,184.41,156.67,201.81,149.06,215,463.56,363.93,457,375.24c-6.91,12-300.34-187.48-309.32-171.93C134.95,225.43,474.28,364.49,462.43,385,452,403.07,160.28,184,148.73,204,140.9,217.56,469.57,363.8,458.55,382.89c-8.14,14.1-308.19-191.76-316.9-176.66-6.41,11.1,323.62,160.7,312.3,180.31-7.5,13-298.2-184-305.33-171.62C137.83,233.6,466.57,372.47,455.3,392c-8.65,15-307.23-190.23-312.94-180.34C135.9,222.85,466.9,376,457,393.29,445.51,413.1,141.24,201.49,134.57,213,123,233,464.76,384.19,456.32,398.81c-12.39,21.47-307.93-202.39-318.85-183.47-7.11,12.32,331.28,164.27,319.59,184.52C449,413.72,135.62,205.24,129,216.76c-6.94,12,343.26,168.78,330.52,190.83-10.19,17.65-316.43-200.4-326.77-182.49-13.46,23.32,338.21,171,327.71,189.21-7.64,13.24-333.55-202.46-340.18-191-7.42,12.86,343.39,182.74,336.67,194.38-10.36,17.94-333.13-211.5-344.21-192.29-9.47,16.4,364.89,179.88,351.56,203C455.85,443,135,210.69,122.7,231.93,114.79,245.62,477.07,406.41,464,429c-12,20.86-336.87-217.87-348.28-198.11-10.61,18.38,351.66,179.53,341.49,197.16-8.3,14.37-339.16-219.58-351.56-198.1-9.29,16.1,361.94,186.12,352,203.26C443.9,457.15,117.79,210.43,104.95,232.66c-12.16,21.07,366.45,193.11,358.45,207-7.8,13.5-356-226.17-367.66-206-10.49,18.17,382.3,189.78,368.9,213-9.06,15.69-365.61-227-373.71-213C82.46,248.34,466.63,420.07,453.41,443,444.62,458.2,107.1,232.32,99.53,245.42,89.29,263.16,476,439.54,465.91,457c-9.84,17.05-353.2-237.13-368-211.54C84.63,268.48,463.44,430.1,452,449.86,437.9,474.34,105.92,221.43,91.55,246.32c-9.7,16.8,384.13,198.67,374.12,216C457,477.44,99.82,239.46,92.88,251.48c-8,13.78,368.09,190.44,358.53,207C444.75,470,91.31,221.85,77.25,246.2,68.15,262,470.44,450.69,460.69,467.58,448.43,488.8,83,230,73,247.39,63.23,264.34,478.51,447.88,464,473.1c-9.21,16-374.08-231.61-382.66-216.75C72.34,271.84,472.21,464.63,464.67,477.7c-7.88,13.65-375.42-247.9-389-224.35C61.76,277.42,466.15,446.44,452.13,470.72,442.21,487.91,77.26,236.9,69.47,250.41c-14.28,24.73,393.66,202.8,383.06,221.17-8,13.8-364.44-244.39-379.44-218.41-9.92,17.18,397.7,205,387,223.46-13.86,24-377.17-234.27-386.44-218.22-8.41,14.56,400,212.18,391.9,226.27C450.82,510.22,73.44,230.8,60.66,252.93c-14,24.19,409.79,211.6,399,230.35-7.68,13.31-386.11-250.08-399-227.82-15.22,26.37,415,210.79,402.51,232.4C448.69,513,72.79,246,64.37,260.64c-7.51,13,404.44,215.83,396.78,229.09-10,17.33-359.47-222.6-367.1-209.4C82.12,301,478.21,469.79,464.21,494c-10,17.36-264-172.94-274.18-155.35-10.68,18.5,273,137.49,264.31,152.6-3.79,6.56-142.4-86-145.78-80.19-3.17,5.49,152.35,78.61,148.3,85.62-1.79,3.11-57.36-33.14-58.57-31-2.93,5.08,64.87,32,62.52,36.1-.25.43-6.85-2.34-7.09-1.92-.37.64,3.86,1.32,3.47,2" fill="none" stroke="#999" stroke-linecap="round" stroke-linejoin="round" stroke-width="1.28"/><path d="M464.38,505.34c.7,3.28-412.45-257.18-405.86-242.55C55,250.91,466.65,11.11,460.74,12.85,467,6.26,467.14,517,464.38,505.34Z" fill="none" stroke="#666" stroke-width="3.19"/><path d="M459.36,509.88C470.23,502,52.32,261,61.28,254.35c-6.17,6.07,398.93-245,403.28-247.51C457.06,5.08,459.6,507,459.36,509.88Z" fill="none" stroke="#4c4c4c" stroke-width="2.39"/><path d="M137,7.49s3.42,1.94,3.4,2-4.34-2.16-4.45-2,4.5,2.49,4.45,2.57c-.34.59-12.77-3.15-13.1-2.57s13.28,7.25,13.1,7.56c-.45.78-13.62-3.48-14-2.78-.52.9,6.31,2.31,5.74,3.31-.11.19-5.11-.43-5.27-.14-.44.77,3.18-.2,2.29,1.32-.29.5-8.3-3.2-8.51-2.85-1,1.67,9,3.1,8.11,4.68-.41.71-16.25-6.15-16.68-5.41-1,1.72,26.09,12.54,25,14.43-.48.83-20.87-12.4-21.63-11.09-1.38,2.39,20.88,10.35,20.14,11.63S105.06,15.79,104.35,17c-1.17,2,29.09,13.81,27.8,16s-45.57-24.54-46.49-23c-1.12,1.93,49.5,24.93,47.92,27.67C131.79,40.88,74.7,6.13,73.5,8.21c-2.05,3.56,63,30.85,60.64,35-2,3.49-59-32.2-60.84-29C71.11,18,138.42,47.13,136.4,50.63,133.55,55.56,56.86,5.5,54.63,9.36,51.94,14,141.84,53.54,139.17,58.17c-3,5.21-76-47-78.76-42.17-2.68,4.64,79.21,39.06,76.32,44.06C134.17,64.5,54.89,8.66,52.55,12.72c-3,5.12,86.18,44.09,83.73,48.34-2,3.41-78.35-45.23-80.3-41.85C52.31,25.56,138.41,59.5,135.25,65c-1.64,2.84-73.67-40.86-76.06-36.72-3.4,5.89,74.09,35.87,71.1,41.05C128,73.31,61,31.48,59.51,34.08c-2.29,4,68.64,32.74,65.66,37.91-2.11,3.66-74.85-46.76-76.44-44C47,31,141.34,77.31,139.55,80.42c-2.68,4.64-78.65-46-80.23-43.29C56.6,41.85,138,77.95,136,81.38c-1.36,2.36-74.77-45.69-77.81-40.44-2.11,3.66,83.94,42.78,81.48,47S53.08,39.31,51.39,42.24c-2.49,4.31,83,41.46,80.18,46.29C129,93,54.73,40.33,52.29,44.56c-2.86,5,81.7,43.42,80.08,46.23-2,3.41-73.3-41.75-76.12-36.88-3.61,6.25,72.19,34.16,68.94,39.8-1.8,3.12-66.54-42.84-68.88-38.79-2.8,4.86,75.93,38.47,73.61,42.5-1.65,2.85-78.3-49.32-80.72-45.14-2.57,4.46,83.62,40.2,80.13,46.26-2.09,3.62-67.73-40.63-69.79-37.06-2.87,5,71.91,34.59,68.91,39.78C126.2,105.14,51,56.92,48.95,60.45c-3.26,5.64,78.62,41.39,76.89,44.39s-75.24-48-77.9-43.39c-3,5.13,89.2,45.37,86.54,50s-76.31-43.31-78.81-39C52.48,78,133,111.51,130.61,115.69c-2.85,4.93-79.51-42.21-80.9-39.79-1.59,2.76,82.4,41.51,79.78,46.06-3,5.15-74.43-45.55-76.13-42.61-2,3.46,88.84,45.67,86.4,49.89-2.94,5.1-85-49.86-87-46.52-2.29,4,83.83,43,81.5,47.06-1.84,3.18-73.84-42-75.18-39.63-3,5.18,69.69,35.12,67.48,39S60.56,90.45,59.2,92.82c-2.31,4,79.64,37.71,76.06,43.92C131.89,142.57,52,86.14,49,91.36c-1.94,3.35,89.63,45.81,87.06,50.27-1.55,2.68-85.56-53-88.74-47.49-1.82,3.15,94.67,48.41,92,53.1-1.5,2.6-84.69-50.11-87.42-45.38-1.79,3.09,81,40.66,78.32,45.22-1.44,2.5-66.44-38.5-68-35.79s68.47,32.87,65.59,37.87c-1.77,3.06-78.15-44.73-80.59-40.5-2.58,4.46,90,46.19,87.49,50.51-1.73,3-83.81-51.09-87-45.58-2.76,4.78,95.6,47.89,92.43,53.37-1.54,2.67-85.15-48.68-86.83-45.77-2,3.48,75.77,36.82,72.77,42-1.9,3.29-76.45-45.64-78-42.88-3,5.25,85.42,43.59,82.94,47.89-1.85,3.2-73.23-42.31-75-39.27-1.67,2.89,73,38.44,71.41,41.23-2.75,4.76-74.74-42.87-76.59-39.66-3,5.2,86.84,43.94,84.15,48.59-1.27,2.2-72.11-41.36-73.82-38.4-3,5.23,80.38,40.17,77.68,44.85-1.73,3-89.84-54.61-92.13-50.66-2.45,4.25,95.43,49.41,93,53.67S63.7,140.18,61,144.86c-1.84,3.18,75.26,39.41,73.51,42.44-1.35,2.33-70.42-42.32-72.6-38.54-2.53,4.38,69.28,35.56,67.36,38.89S65,146.77,62.36,151.29c-3.3,5.71,64.83,31.55,62.28,36-1.71,3-60.34-33.58-62.47-29.88-1.6,2.77,75.41,38.9,73.4,42.38-2.65,4.58-84.29-53-86.24-49.58-3.57,6.19,93.81,46,90.26,52.11-3.33,5.77-89.52-57.17-92.08-52.73-2.77,4.8,86.38,42.87,83.35,48.12-1.4,2.43-68.07-41.91-70.53-37.65-3.12,5.41,71.46,35.3,68.87,39.77-3,5.21-80.26-45.4-83-40.66-3.45,6,89.93,45.5,87.15,50.32C131.42,212.8,64.73,169,62.4,173c-2,3.47,74.8,34.9,71.21,41.12-1.76,3.06-72.71-42.55-75-38.62-3,5.13,80.43,42.76,78.84,45.52-2.07,3.59-85.37-51.84-87-49.05-3.54,6.13,88.34,42.61,84.71,48.91-3,5.13-78.36-44.54-81.08-39.83-3.22,5.58,73.78,37.52,71.58,41.33-1.81,3.14-66.69-42.54-68.88-38.73C55,186.88,130.6,219,127.43,224.44c-1.54,2.67-76.42-48.24-79-43.86-1.64,2.85,92.73,49.33,90.9,52.48-2.83,4.9-85.94-54.26-88.49-49.85-2.83,4.9,76.36,40.06,74.61,43.08-2.69,4.66-71-39.57-72.71-36.56C49.2,196,139.48,232.81,136.47,238c-2.91,5-78-49.41-80-46.1-2.56,4.44,78,39.05,75.39,43.53C130.42,238,62.38,192.65,60.44,196c-2.14,3.71,76.79,37.66,73.9,42.67-1.4,2.43-78-45.9-81-40.66-3.16,5.48,81.9,43.34,80.19,46.3-1.87,3.23-78.54-46-80.78-42.13-1.64,2.84,85.36,41.36,81.93,47.3-2,3.5-72.35-40.41-74.81-36.15-1.63,2.82,72.56,36.11,70.05,40.45-1.54,2.68-66.37-39.9-68.2-36.72C59,221.8,129.6,251,127.3,254.95c-2.19,3.8-74.5-45.57-76.53-42-3.2,5.54,78.75,38.32,75.65,43.68C125,259,52,211.64,50.51,214.18c-1.77,3.06,85.92,43.73,83.37,48.14-1.92,3.33-78.43-51.74-81.32-46.72-2.13,3.69,89.94,44.79,86.85,50.14-3.34,5.79-87.48-51.22-90.59-45.84-2,3.54,82.52,42.65,80.36,46.4-1.43,2.47-70.09-40.43-72-37.15-2.1,3.64,84.76,44.76,82.95,47.89-2.38,4.12-81.92-45.36-84-41.8s77.19,39.09,74.82,43.2c-1.41,2.44-73.68-43.21-76.5-38.33-2.68,4.64,75.59,35.69,72.14,41.65-2.06,3.56-76.25-42.68-78-39.72-2.41,4.18,81.37,39.59,78.17,45.13-1.83,3.17-66-40.26-67.29-38-3.34,5.79,73.3,35.85,70.49,40.7-1.81,3.14-71.13-39.84-73.66-35.46-2.16,3.74,72.33,34.54,69.2,40-2.11,3.65-70.65-39.75-72.23-37-2.17,3.75,82.6,41.43,79.89,46.12s-71.1-43.67-72.58-41.11c-1.72,3,79.08,41.81,77.41,44.69-2.42,4.2-85.67-50.2-87.91-46.32-3.67,6.36,90.83,46.65,88.32,51-2.64,4.56-80.4-49.83-83.29-44.83-2.79,4.83,86.62,44.17,84.1,48.55-1.8,3.12-85.44-50.62-87-47.89-2,3.43,79.43,38.53,76.25,44-2,3.41-64.59-41.21-67.24-36.61-2.88,5,65.32,34,63.72,36.79-2.12,3.67-77.2-47.38-78.68-44.81-2.05,3.56,83.34,43.25,81.23,46.9-1.88,3.25-65.85-36.45-67.63-33.37-3.55,6.16,70.8,35.39,68.42,39.5-2.7,4.68-74.86-44.38-77.45-39.9-1.95,3.37,83.6,43.83,81.68,47.16C130.44,331,52.75,278,50.44,282c-1.83,3.17,80.39,40.06,77.64,44.83-2.46,4.27-79.48-51.41-81.93-47.16-3.43,5.93,83.1,43.92,81.34,47-2.44,4.22-71.51-43.79-73-41.22-2.57,4.46,88.24,43.28,84.92,49-2.75,4.76-83.32-48.49-85.28-45.11-2.31,4,86.82,42.83,83.66,48.3-1.57,2.72-73.67-42.38-76.24-37.93-2.34,4,69.25,36,67.51,39-2,3.54-67.53-37-69.22-34.11-3.45,6,75.37,36.52,72.34,41.77-1.25,2.17-70-38.49-72.24-34.68-2.05,3.55,80,42.07,78.2,45.15-1.64,2.84-74.34-46.61-76.7-42.54-1.75,3,67,34.56,65.2,37.64-3,5.18-75.19-43.52-77.76-39.07-3.62,6.27,91.73,46.2,88.8,51.27-1.72,3-85.07-56.65-88.6-50.53-3.1,5.37,81.37,38.78,77.82,44.93-2,3.43-66-40.16-68.06-36.64-3,5.16,68.06,35.55,66.44,38.36-2,3.45-75.17-44.4-78.16-39.22-3.64,6.3,81.56,42.52,79.59,46s-70.92-43-72.31-40.6c-2.78,4.81,74.46,37.3,72,41.57-2.06,3.57-77.3-50.11-79.83-45.74-3.31,5.74,83.51,42,80.83,46.67-2.48,4.29-74.85-47.6-77.77-42.53-3.1,5.37,88.14,46.94,86.43,49.9-3,5.26-83.06-51.89-85.28-48-3.66,6.34,89.06,45.7,86.59,50-2.91,5-81.66-46.34-83.17-43.73C51.83,338.53,129,370,125.67,375.7c-2.69,4.66-67-44.14-69.42-39.91-3.17,5.48,80.46,41.62,78.37,45.25-1.95,3.37-75.14-44.76-77.67-40.4-2.67,4.63,70.74,32.52,67.13,38.76-1.17,2-65.56-39.13-67.14-36.39-2.76,4.78,79,41.79,77.31,44.64-3,5.16-80-50.53-81.94-47.13-1.74,3,88.54,43.09,85.07,49.11-1.88,3.26-78.87-46.77-81.37-42.43-2.61,4.53,80.28,38.81,77,44.47-1.81,3.14-80.89-50.73-83.85-45.6-2.55,4.41,91.08,46.55,88.47,51.08C136,400,50.86,340.44,47.84,345.67c-3.65,6.33,89.53,45.63,86.91,50.18-2.4,4.15-79.22-48.32-80.86-45.48-2.72,4.7,77.87,38.12,74.91,43.25-1.85,3.21-75.84-41.46-77.42-38.73C47.84,361,138.67,399,136,403.72,133.88,407.31,55,355,53.25,358c-3.25,5.63,75.89,38.15,73.43,42.4-2.35,4.07-66.21-44.35-68.93-39.63-3.21,5.57,77.36,40,75.34,43.5-2.24,3.88-75.8-47.77-78.24-43.54-1.71,3,77.67,38.36,74.86,43.22-2.52,4.36-72.25-48-75.09-43-1.79,3.1,71.48,37.47,69.83,40.32-2.23,3.86-68.31-38.22-70.88-33.76-2.37,4.1,84.68,45.18,83.07,48-2,3.52-85.47-50.63-87.3-47.47-2.42,4.19,91.16,44.32,87.56,50.56-2.72,4.71-74.1-40-75.79-37-3.19,5.52,72.13,37.55,70.36,40.62-2.4,4.16-76.44-40.91-77.79-38.58-2,3.39,81.34,39,77.9,45-3.24,5.61-82.22-50.78-83.87-47.93-3.11,5.39,82.31,42,79.91,46.14-1.34,2.32-71.8-39.4-73.89-35.79-1.67,2.9,79.09,40.12,76.69,44.28-1.38,2.39-69.69-43.51-71.41-40.53-3.42,5.93,68.81,33.89,66.28,38.27-1.73,3-63.27-38-64.45-36-3.2,5.55,78.36,38.29,75.35,43.5s-72.64-45.53-75-41.45c-1.75,3,67.93,30.8,64.29,37.12-3,5.28-76.29-46.23-79-41.5-3.28,5.69,85.19,44.58,83.19,48-2.8,4.86-78.37-43.43-80.18-40.29-2.5,4.34,81.24,40.87,78.63,45.4-1.82,3.15-68.64-41.28-71-37.11-2.65,4.6,80,40,77.32,44.64-1.66,2.88-85.22-50.17-87.57-46.1-2.75,4.76,81.3,41.76,79.06,45.65-1.6,2.78-72.22-43.4-74.89-38.78-3.68,6.37,89.19,47.51,87.47,50.5-3.23,5.59-85-51.34-87.43-47.22-2.1,3.64,87.72,42.35,84.13,48.57-1.81,3.14-79.08-45.06-80.92-41.86-2.75,4.77,84.75,40.6,81.14,46.85-2.65,4.59-83.16-51.71-84.86-48.76s78.29,38.56,75.42,43.54c-1.27,2.2-65.84-39.39-68.12-35.45-3.47,6,81.5,42.7,79.62,46-1.73,3-83.67-49.88-85.93-46-2.58,4.46,81,39.85,78,45.06-2.29,4-69.22-40.38-71.16-37-3.58,6.2,80.19,38.34,76.75,44.31-2.23,3.87-77.86-44.43-79.33-41.89-2.31,4,82,42.93,80.09,46.24-2.52,4.37-82.13-48.74-83.8-45.85-3.17,5.48,79.9,42.09,78.15,45.12-1.19,2.06-65.5-37.58-67.92-33.38-3.44,6,78.05,39.2,75.51,43.6-1.73,3-79.55-47.54-81.29-44.52C54.18,458,131.15,493,129.41,496c-1.84,3.18-72.6-43.87-75.19-39.38-2.15,3.73,78.23,41.25,76.53,44.19-3,5.27-75.94-44.36-78.19-40.45-1.87,3.24,72,36.34,69.75,40.27-1.74,3-64.93-35.14-66.2-32.95s59.32,28.05,56.64,32.7C110.64,504,60.5,468.6,58.82,471.52c-1.88,3.26,57.88,30.53,56.63,32.7-1.72,3-60.72-34-63.1-29.84-1.38,2.39,42.75,21.11,41.2,23.79-1.37,2.37-35.74-20-36.57-18.56-1.13,2,37.79,18.37,36.3,21C92,502.71,58.83,478.4,57.71,480.34,56.29,482.79,98.62,500.22,97,503s-42.6-24.4-43.64-22.6c-1.72,3,33,15,31.22,18-1,1.69-34.4-18.46-35.6-16.38-1.62,2.8,41.54,21.7,40.55,23.41-.82,1.43-26.6-16.14-27.41-14.75-1.5,2.6,21.37,8.67,19.78,11.42-.58,1-27.84-16.46-28.64-15.06C52,489.3,81.54,501.56,80.73,503c-.57,1-25.42-8.41-25.87-7.63-.69,1.2,19.73,9.92,19.09,11-1,1.71-27.33-9.66-27.8-8.86-.27.47,16.07,8.19,15.6,9s-15.19-4.48-15.6-3.78c-.14.24,6.67,3.58,6.56,3.78s-6.35-2.31-6.55-2c0,0,3.41,1.94,3.4,2" fill="none" stroke="#999" stroke-linecap="round" stroke-linejoin="round" stroke-width="1.28"/><path d="M47.92,502.89c-1.19,7.18,91.48,5.62,91.37-4.64,1,3.94-.3-489.5.13-490.41.75-9.53-91.85-8.75-91,2.09C47.32-2.72,47.11,506.83,47.92,502.89Z" fill="none" stroke="#666" stroke-width="3.19"/><path d="M45.21,506c2.19-1.46,94.33,1.51,93.71-.3-.48-3.33.07-494.05,2.3-495.86-1.87,2.8-93.18,5.63-95.93.82C46.13,12,49.15,501.66,45.21,506Z" fill="none" stroke="#4c4c4c" stroke-width="2.39"/></svg>