<svg id="Layer_1" data-name="Layer 1" xmlns="http://www.w3.org/2000/svg" viewBox="0 0 512 512"><defs><style>.cls-1{fill:#707070;}</style></defs><title>stage-microphone-handdrawn</title><path class="cls-1" d="M382.73,270.82a115.34,115.34,0,0,0,23.2-3.65c6.07-1.2,12.48-3.92,17.48-5.64a147.6,147.6,0,0,0,36.33-22.46,136.15,136.15,0,0,0,28.15-33.34c18.81-30.88,23.69-69.36,15.58-101.76-.85-3-1.49-6.52-2.65-9.75l-3.29-9.06c-2.18-5.26-4.11-8.46-3.64-6.84.22.88-.16.28-1.42-2.38-1.1-2.75-3.7-7.22-7.77-14.19-2.06-3.36-4.79-6.71-7.17-10.09-19.27-24.55-47-42.59-77.58-48.71-4.32-1-8.65-1.5-13-2.25a133.14,133.14,0,0,0-86.64,20.94c3.05-1.28-4,3.26-13.7,11.56-1.92,2.57-3,4.3-5.35,7.14-1.59,1.94-.46,1.24,3.45-2.13a136.58,136.58,0,0,1,21.68-16.26,127.76,127.76,0,0,1,46.19-17c10.46-2.09,22.58-1.72,31.47-1.31a135.2,135.2,0,0,1,39.21,9.23,126.32,126.32,0,0,1,36.52,23.09c5.07,4.24,9.39,9.2,13.63,13.86,3,3.56,5.63,7.4,8.64,11.31,2.54,4.21,5.48,8.58,8.13,13.85-.92-1.07-.78-.2.68,3.33.7,1.78,1.87,4.16,3.16,7.41C495.1,89,496.67,93,498.18,98.1c1.14,5.22,2.86,10.33,3.39,15.66l1.16,7.93.39,8c1.37,34.76-11.64,69.77-35.43,94.86a1.85,1.85,0,0,1-.43.31l3.47-4c28.8-32.49,39-80,27.18-121.75-.71-3.27-2-6.53-3.07-10-1.47-5-4.08-9.61-6.15-14.42-2.43-4.63-5.13-9.15-7.91-13.56a11.54,11.54,0,0,0,1.14,2.87l5.23,10.4,4.59,11.75c-6.83-14.41-7.15-14-12.3-23.63l-5.12-7.26c-2.21-3.48-5.84-6.83-9.19-10.73s-7.76-7.14-11.52-10.6c-4.19-2.94-8-5.89-11.45-8l-8-4.4c-1.78-1.08-5-2.26-8-3.65A128.58,128.58,0,0,0,383,6.46c-27.17-2.15-46.66,6-39.61,4.59,2.39-.32-.24.75-5.05,2.29-2.4.79-5.22,2.14-8.31,3.3a82.88,82.88,0,0,0-9.3,4.13,96.26,96.26,0,0,0-21.63,13.48c-3.77,3-5,4.3-5.35,5.08-.32.55,2.16-1.41.19.58-4.3,4.33-5.12,5.4-3.66,4.37s5-4.47,10.41-8l-4.38,3.55-3.68,3.67c4.43-4.22,9.26-7.1,14.69-11l10-5.89,8.81-4.08c17.19-6.91,40.06-11,61.18-8.07A118.08,118.08,0,0,1,428,26.84c-.92,0-5.09-1.51-4.55-.89.39.8,6.29,2.46,22,14.37l-3.55-1.59c11,8.28,21.24,19.21,25.9,26.92A133.21,133.21,0,0,1,484.34,99.5c1.78,5.88,2.44,7.86,3.68,11.62l-.09-1.18c2.37,11.54,2.77,26.46,1.76,34.45-1.24,9.5-3.55,21.91-8.48,34.1a131.78,131.78,0,0,1-19.89,33.1,88.1,88.1,0,0,1-9.81,10.22c-4.39,4.4-9.54,7.84-14.47,11.54-4,2.39-8.09,4.75-12.28,6.85-1.71-1.76-3.25-3.35-4.43-4.59-8.18-8.66-21.74-22.47-32.43-33-1.72-1.69-4.17-4.15-6.26-6.27-10.88-11-21.76-22-32.62-32.94-9.41-9.47-18.76-18.77-28.16-28.25-7.94-8-16.44-16.57-23.79-24.11-10.32-10.58-20.35-20.76-30.79-31.17.81-2.13,1.26-3.43.63-2.41-2.33,3.08,1.41-3.74,4.51-9.63L266.47,76c-.52.82-1,1.76-1.41,2.67l-.27-.27c1.65-3.65,2.41-5,3.1-6.71.54-1.22,1.16-2.56,2.43-5,1.49-2.3,3.77-5.63,7.57-10.82l-5.24,6.87c1.86-3,3.31-6.15,5.41-8.87l6.31-8.68c-12.9,13.19-19.31,24.45-24.84,36.06-.26-.12.91-3.5-1.07.26a54.54,54.54,0,0,0-4.13,9.31,82.53,82.53,0,0,0-3.76,12L249,109.43c-.14.7-.21,1.41-.31,2.11l-10.43,11.9-9.68,11.1c.07-3.78.27-7.55.69-11.31a35.93,35.93,0,0,1,.36-5,35.47,35.47,0,0,0,0,5.06,155.77,155.77,0,0,1,10.31-43.46c2.11-4.44,4.74-10.89,6.53-14.22,5.62-10.35,7.09-13.36,5-10.73a125.46,125.46,0,0,0-13.87,24.68C230.3,96.95,226.8,116.63,227,136.36l-48.56,55.69-51.07,58c-25.18,28.31-49.21,55.55-74.16,84.4l-7.27,8.26-9.91,11a83.52,83.52,0,0,0-7.76,10.39c-4.24,6.61-6.89,12.72-9.64,21.18a41.8,41.8,0,0,0-2.13,11.45c-.11,1.51,1.19-3.92.83-1.2a86.92,86.92,0,0,0-.78,15.49c.16,5.32,1,9.12.88,6.69.12-6.22.53,6.5,4,16.52a80.81,80.81,0,0,1-2.52-31.7A68.21,68.21,0,0,0,19.18,419a51.5,51.5,0,0,0,1.46,7.12c.41,2,1.21,4.17,2.41,8.23a90.61,90.61,0,0,0,6.37,14.55,76.46,76.46,0,0,1-3.65-8.06,77.77,77.77,0,0,0,11.34,17.2A42.64,42.64,0,0,0,31.17,464c-.32.4-.84.92-1.28,1.37-2.31,2.32-4.64,4.61-6.92,6.94-2,2-3.84,4.1-5.81,6.12-1.66,1.71-3.46,3.52-5.11,5a90.16,90.16,0,0,0-7.39,7.33,6.46,6.46,0,0,1-.73.71c-1.8,1.26-1.87,2.11-2.78,3.13a1.13,1.13,0,0,0-.29,1c0,.19.44,0,.38.24-.14.61-1,2-.55,1.93s0,.73-.44,1.49l2-1.65C.55,499.67,2.18,499,0,501.44l.84-.7-.71,3L4,499.89c.15.15,0,.65.52.4,1.3-.66,3-2.71,4.37-4.12a13.66,13.66,0,0,1,2.61-2.35,11,11,0,0,0,2.26-1.92c.44-.45.92-.88,1.38-1.31l.08.08-3.92,4.2c.93-.83,1.76-1.66,2.59-2.49,2-2,4-4.09,6.07-6.05,1.61-1.55,4-3.22,3.38-2-.47.93-1.29,2.15-2,3.29-.09.15-.56.57-.86.87l-.07-.29-1.74,2.13,1.29-1c.18.1.35.13.42.26.19.37,1,.21-.22,1.85a13.72,13.72,0,0,0-1.34,1.91c0,.35-.34.64-1,1.35a13,13,0,0,0-1.6,1.94c-.18.41.24.3.45.44l-.46.6,2.41-2.36,0-.39c1.13-1,2.17-1.92,3.16-2.9s1.94-2.06,3.09-3.29l-.33.6,1.52-1.4a2.38,2.38,0,0,0,1-.13,6.07,6.07,0,0,0,1.23-1c2-2.25,4.16-4,6.19-6.07.5-.5,1.07-1.05,1.46-1.52,2-2.41,4.52-4.88,6.73-7.32,1.72-1.9,3.43-3.8,5.09-5.67a28.45,28.45,0,0,1-2.6-1.78l-.85.84L44,465l.8-.83a29.63,29.63,0,0,1-6.44-7.08l-.1.09c-.16.11-.34.28-.51.4a77.09,77.09,0,0,1-15.42-50.25c.29,0,.55,5.14.88-.94a82.92,82.92,0,0,1,9.14-31,80.85,80.85,0,0,1,10.79-15.63l11.08-12.74C65.59,334,74,324.44,79.3,318.81c5.77-6.13,12.41-13.63,21.31-23.79l13.62-15.42.14.07L73.71,326.38l25.68-29.12,61-69.52c16-18.09,37-41,28-29.9L162.64,229,153.93,239l.88-1.51-19.18,22.4,11.93-13.23c.57-.26,1.48-1,1.31-.53-.5,1.36,4.58-3.56-9.24,12.85-5.63,6.68-14.65,17.2-16,19-1.78,2.47-4.75,5.83-11.65,13.74-6.43,7.37-15.39,17.77-17.6,20.54-2.8,3.5.1.66.66.52l-5.22,6.14,24-27.31,1.58-2.38,30.73-34.64,31.94-36.67-4.47,5.48,14.76-16.64c2.06-1.91,2.9-2.47,6.08-5.74,1.67-1.72,8.45-9.2,11.2-12.37l23.65-27c.54,3,1.2,5.93,1.92,8.87l-48.44,55.05c-11,12.45-16.81,19.22-19,22.14-5,6.8-9.53,13.12-13.13,18.36-.6.87,3.58-3.6,7.14-7.5,17.77-19.5,37.72-42.74,56.65-64.35,14.56-16.62,16.31-18.91,9-11.22-2.18,2.3-.61.22-.76.14l9-10.29c.32,1.2.54,2.44.89,3.63L237,189c1.68,4.12,3.66,8.13,5.49,12.17a25.55,25.55,0,0,0,1.48,2.55A163.39,163.39,0,0,1,232.61,172l4.88-5.55,9.92-10.68.3,2.26c.39,2.47,1.1,4.86,1.63,7.26a100.64,100.64,0,0,0,4.23,14,122.07,122.07,0,0,0,16.66,31.08c6.76,9.67,15.22,18,24.16,25.31,14.14,11.85,36.25,21.18,26,17.32a88.34,88.34,0,0,1-13.14-6.18,112.9,112.9,0,0,1-14.06-8.91c-1.28-.67-5.19-4.28-7.77-6.68l1.21.65c-6-5-10.08-9.65-15.87-16.42,5,6.51,8.29,9.77,8.89,10.63.11.52.58,1.33.21,1.19-1.09-.43,2.25,4.15-9.38-8.2-2.17-2.68-4.82-6.29-7.16-9.33s-3.79-5.91-4.4-6.57A60.25,60.25,0,0,1,252,190.57l-2.64-5.69-2.16-6c-1.41-3.82-2.59-7.07-2.9-8.46-1-3.43-.57-.2-.8.26l-1.65-6.29,2,8.51,2.44,7.14a87.65,87.65,0,0,0,4.9,12.08l1.29,1.9c5.82,11.92,12.3,22,20.46,30.93,7.91,9.21,17.54,17.21,29.8,24.9-1.67-.93-2.75-1.46-3.68-2,2.43,1.61,4.83,3,7,4.32a55.14,55.14,0,0,0,7.13,3.94,66,66,0,0,0,5.74,3.56c1.6,1.18,9.29,3.89,12.49,5a179.37,179.37,0,0,0,19.85,4.7c-2.57,2.3-4.84,4.33-6,5.32l-1.05.91A136.22,136.22,0,0,1,296.39,256c-5.95-3.82-10.13-7.34-13.47-9.65-3.08-2.63-5.09-4.39-6.35-5.3-6-4.08-10.7-8.84-15-12.37-.7-.6,2.68,3.5,5.69,7,15.06,17.46,38.58,31.91,62.39,39.36,5.1,1.38,8.94,2.34,11.72,3-20,17.33-39.34,35.1-55.4,49.43l11.63-9L308,310.8l36-32.18c3.85.81,3.77.51.43-.38l.54-.49c1.19.23,2.33.46,3.55.64l-18,16.39c-11.59,10.58-28.36,25.66-24.86,23.39,1.89-1.22-2.38,2.62-17.51,16l-11.57,10.34-87.69,78.36-13,11.36,1.77-1.72L156.1,451.76c-7.27,6.31-14,13.32-22,18.19-15.9,10.08-36.23,12.72-54.62,7.37,3.89,1.31-6.88.2-20.17-8.74a53.26,53.26,0,0,1-9.61-5.78c-2.63-1.92-1.59-.63,3.32,4.06A68.08,68.08,0,0,0,84.9,482.12a71.06,71.06,0,0,0,60.65-16.49l30.32-27.23c25.19-23,50.78-46.33,79.71-72.27L274,349.49l28.47-25.93c-2.08,2.9,3.79-2.09,23.87-20.06l27.18-24.37.67.09L327.51,303.1l-10.06,8.78-30,26.78a11.16,11.16,0,0,0,3.29-2.15L315,316.7c-15.16,14.12-15,14-25.89,23.05l-8.7,7.59c-16,14.13-43.85,39.64-50.93,46.55-2,1.91-5.21,5.06-8.38,7.91L177,441.27c-13.41,11.83-24.42,22.32-32.38,29.21-8.27,6.68-12.68,8.67-8,6.77,3.06-1.59,0,1-6.59,4.53a68.15,68.15,0,0,1-27.08,7.32,77.67,77.67,0,0,1-23.3-2.16,59.26,59.26,0,0,1-7.89-2.35,47.81,47.81,0,0,1-5.84-2.29c-6.63-2.8-8.78-4.49-10-4.76-.88-.32,3.11,2.41-.6.28-7.8-5.13-9.33-6.66-7.44-4.58a70.26,70.26,0,0,0,17,11.47,61,61,0,0,1-8-4A56.79,56.79,0,0,1,50,476.22a77.11,77.11,0,0,0,44.24,16.72,87.51,87.51,0,0,0,15.56-.6A81,81,0,0,0,132.47,486a87.06,87.06,0,0,0,21-13.76l33.62-30,44.42-40c-1.22,2.08-17.39,17.72,24.17-19.23l-3.46,4.21L292.32,352c13.69-11.78,27.5-24.09,40.38-35.83,6.48-5.9,8.42-8.15,12.41-12l-1.36,1,27.55-24.25A71.06,71.06,0,0,0,379,281a143.57,143.57,0,0,0,54.55-14.05c2.63-1.28,5.56-2.71,6.59-3.32,5-3.56,1.25-1.19-7.83,2.47A152.07,152.07,0,0,1,393.74,277a139.21,139.21,0,0,1-19.68,1.42l6.42-5.65ZM44.12,465.32l-6.35,6.29s-.06,0-.1,0c.13-.16.26-.32.41-.48l5.82-6Zm65.65-189.18L49.64,344.23l1.09-1.56,9.88-11.11,16.26-18.66,27.41-31.32c3.11-3.53,5.59-6,8.35-8.94Zm328.12-28c3-1.83,5.77-3.17,7.68-4.53a134.66,134.66,0,0,1-21.2,12.12,44.24,44.24,0,0,1-6.87,2.67c-3.07,1-6.81,2.6-11.87,3.6a67.85,67.85,0,0,0,9.41-3l5.09-1.86-.46.11-9.24,3.29c-3.24.91-6.67,1.69-10.35,2.63,4.83-1.36,9.78-2.36,14.29-4.24l6.74-2.45c2.16-.88,4.18-1.95,6.17-2.85l5.71-2.67Zm-55-41.07,35.78,36-.25.1L381,205.19a1.21,1.21,0,0,1-.17-.25C381.5,205.62,382.21,206.3,382.93,207Zm-13.49-13.54c-3.25-3.18-6.34-6.17-9.83-9.62-1.43-1.41-3.74-3.82-7.78-8l6.12,6.07-.17-.21-8.15-8.19C357.72,181.46,365.83,189.61,369.44,193.48ZM271,87.26c4.29,4.31,8.66,8.69,12.85,12.94,1.45,1.47,2.44,2.64,3.63,3.94l-1.45-1.35-20.54-20.9,0-.11Zm-6.87-6.88,0,.09L264,80.3l0-.09Zm-.73,1.11-.15.74c-.5,1.08-1,2.14-1.58,3.31C262.37,84,262.92,82.67,263.44,81.48ZM232.09,169.6c-.38-1.74-.83-3.47-1.14-5.22-.21-1.3-.35-2.61-.54-3.92l6.44-7.34L247,141.63c.08,1.49.15,2.93.17,4.28l.67,5.8-.76.87c-.1-.7-.28-1.39-.36-2.09l.29,2.17ZM261,195.2a129.16,129.16,0,0,1-13.42-39.63l.61-.65.29,2.52a113.2,113.2,0,0,0,6.23,23.42c1.89,4.83,4.11,9.58,6.41,14.25Zm4.91-3c-10-19.54-15.18-41.75-13.73-63.74l.14,1.38a67.28,67.28,0,0,0,0,10.78c0,6,1.28,11.87,2.15,17.81,1.36,4.84,2.07,9.91,4,14.6l2.47,7.13,3.09,6.77c.7,1.55,1.26,2.92,1.78,4.26l1.95,3.77Zm57.57,49.71c-16.34-7.5-31.87-19.82-42.12-33.3a123.77,123.77,0,0,1-25.71-73.17c-.1-2.33.25-6.32.31-7.74,1.87-16.29,2.63-21.19,5.66-31.17a29,29,0,0,0,1.62-6.71c.12-.93-1.16,2.15-.8.53.37-1.33,1.19-3.52,2-5.74,1.45,1.5,2.74,2.84,3.66,3.85,2.49,2.72,5.56,5.86,9.73,10.06,2.11,2.13,4.21,4.28,6.32,6.43l0,.07L265,85.79c4.1,4.22,8,8.17,11.93,12.12,9.51,9.61,19.14,19.3,28.51,28.82,7.41,7.53,16.76,17.47,12.16,13.22-3.45-3.18-8.37-7.88-12.88-12.17-.58-.55-2.68-2.7-4.08-4.11l.65.41L292.05,115l5.41,5.63c.09.27.38.7.17.62-.6-.23,1.37,2.17-5.39-4.36-2.75-2.65-7.08-6.92-7.83-7.53-1-.84-2.41-2.24-5.66-5.5-3-3-7.3-7.26-8.45-8.31-1.45-1.32-.31,0-.28.31l-2.53-2.46,11.2,11.35,1,.74c5.06,5.18,9.56,9.82,14.19,14.51s9.44,9.46,15.05,15.08L306.66,133l6.82,7c.76,1,1,1.37,2.29,2.87.69.79,3.75,4,5.05,5.29,10.08,10,19.15,19.45,28.81,29.19,2.36,2.38,5,5.05,7,7.07,10.6,10.46,22.22,22.21,33.23,33.19,8.92,8.89,17.8,17.74,26.5,26.38l-1.33.54c-3.78-3.78-7.18-7.11-10.92-10.83-8.9-8.83-18.13-18.06-28.14-28-.83-.73-2.59-2.33-3.61-3.18-.48-.39,0,.18.86,1.16,2.76,3,8,8.51,8.52,9.31,1.12,1.64,9,9.44,14.27,14.85,4.48,4.6,7.12,7.14,9,8.82s5,4.56,8.45,7.84l.51.49a111.58,111.58,0,0,1-28.57,7C364.37,254.07,342.74,251.1,323.5,241.87Zm18.41,35.75h0c-2.64-.77-.41-.43-.41-.59.28.08.61.12.89.19Zm4.88-1.58,7-6.29c1.19.18,2.37.37,3.56.51l-7,6.38C349.16,276.45,348,276.26,346.78,276Zm8.55,1.43,1.36-1.22,6.15-5.49.71,0L356,277.55ZM43.75,401.35a66.47,66.47,0,0,0,.47,26c.2,1.58,0,1.67-.61,0l-1.31-3.87a64.17,64.17,0,0,1-1.24-6.88c-.63-3.61-.43-10.37.31-15.07a57.42,57.42,0,0,1,7.12-19.77l2.92-4.5c1-1.47,2.26-2.82,3.37-4.27l8.82-10-3.51,4.7,3.78-4.46,64.22-70.34L126,295.55l-20,22.79L68.47,361.08l-9.38,10.66-2.25,2.58-1.74,2.19A36.56,36.56,0,0,0,51.86,381,57.74,57.74,0,0,0,43.75,401.35ZM388.4.8c-.47-.05-1-.05-1.42-.1l-.53-.08ZM297.84,247c.42.3.83.52,1.24.8A12.83,12.83,0,0,1,297.84,247ZM512,133.27c0,4.25-.26,8.52-.25,10.38a111.72,111.72,0,0,1-.92,12.51l-.5,5.21-.75,4.25c-.41,2.4-1,5.33-1.86,9.16-1.23,3.72-2.69,8.38-5,14.12l-5,10.71c-1.91,3.63-4.12,7.15-6,10.44a87.87,87.87,0,0,1-9.45,12.55c-1.39,1.2-10.93,12.08-17.21,16.7-1.93,1.61-3,2.39-2.26,1.52l6.25-6.59c9.17-9.6,17.37-19.61,23.18-30.66,3.35-5.26,5.4-11.1,8-16.54l2.92-8.53a59,59,0,0,0,2.46-8.55c3.75-15.31,5.16-28.36,3.85-47.72a147.67,147.67,0,0,0-9.8-40.53l-3.43-10.14c-1.11-3.43-3.21-7.09-5.05-11.17,10,16.21,19.11,38.95,20.31,62.63ZM41.64,482.85a3.67,3.67,0,0,1-.47.66l-3.93,4.68a19.92,19.92,0,0,0-1.74,1.09c-.33.24-1,1-1.47,1.45.09.08,0,.36.29.21.91-.48.82-.19-.61,1.27A54.09,54.09,0,0,1,28,497.76c-.4.29-.9.59-.9.46a19,19,0,0,1,.29-2.67c.07-.41.61-1,1.72-2.1,2.65-2.54,5.32-5.13,7.92-7.76C39.41,483.3,42.17,481.52,41.64,482.85ZM18,506.11l7.22-5.25-.12.32c-.66.67-1.32,1.35-2,2-2.51,2.41-4.92,5.1-7.56,7.22-2.47,2-3.82,2.23-2.36.11a9.92,9.92,0,0,1,1.09-1.29c1.13-1.09,2.27-2.13,3.52-3.29l-.14.63Zm183-222.77-3,3.62-.85,1.14a9.8,9.8,0,0,0,.42,11.08c.47.65,1,1.18,1.55,1.9s1.33,1.62,1.8,2.28c.94,1.31,1.24,2.07.15,1.37-1.62-1.09-3.91-2.69-5.57-4.08a8.47,8.47,0,0,1-1.14-1.75l.44.09a11.35,11.35,0,0,1-1.74-4.26,11.37,11.37,0,0,0,.42,2.82c-.22.17-.34.42-.55.41-.5-.11-.91,1.48-2.23-2.33a21.54,21.54,0,0,1-.51-4.7c-.18-.61-.06-1.52.68-3.44a22.69,22.69,0,0,1,2.26-4.1,5.34,5.34,0,0,0,.34-.58c.34-.77-.33-.4-.66-.51-.22.33.14-.2.8-1.21l-1.35,1.67a18.05,18.05,0,0,0-2.75,4.53l.16.68a15.42,15.42,0,0,0-.65,9.55,16.79,16.79,0,0,0,5.48,8.38l-1.18-.84,2.81,3a4.82,4.82,0,0,0,.48,1.61,16.46,16.46,0,0,0,1.89,2.28c1.57,1.47,2.79,2.7,4.42,4.4A17.14,17.14,0,0,0,214.64,322a15.09,15.09,0,0,0,5.07-.59,18.23,18.23,0,0,0,5.24-2.59c.8-.56,1.62-1.25,2.32-1.85l1.83-1.54,7.31-6.17,8.88-7.67,4.34-3.8a18.74,18.74,0,0,0,4.42-5c1.86-2.81,2.46-7.57,1.62-6.78-.52.39.08-.73-.36-4.69a13.2,13.2,0,0,0-.83-2.94c-1.3-3.69-4.68-6.32-6.9-8.7l-7.31-7.4c-.72-.73-1.35-1.54-2-2.31l.38.24-3.69-3.61a14.78,14.78,0,0,0-4.94-3.05,14.94,14.94,0,0,0-11.42.47c1,.22-1,1-3.2,3.11-.16.94-.07,1.66-.18,2.59,0,1.45,1-.83,5.68-3a11.47,11.47,0,0,1,9.65.72c1.87.93,3.57,3.08,5.18,4.43,4.51,4,9.1,8.18,13.9,12.93a16.56,16.56,0,0,1,2.6,3.38,13.73,13.73,0,0,1,1.66,6.5c-1-.69-.54.81-2.34,4.91a14.34,14.34,0,0,1-4.44,5l-18.34,14.61s-.1,0-.16,0l.89-.8,11.35-9.33,5.68-4.66a14.68,14.68,0,0,0,4.45-4.9,11.72,11.72,0,0,0,1-1.92,11.91,11.91,0,0,0,.29-6.43c-.17.22-.41.14-.49.7a12.2,12.2,0,0,1-1.58,4.5,33,33,0,0,1,.13-4.77,5.3,5.3,0,0,0-.32-1.58,9.83,9.83,0,0,0-3.26-4.27,41,41,0,0,0-4.12-3.33,9.18,9.18,0,0,1-1.65-1.23l-7.38-7.43a33.6,33.6,0,0,0-3-2.8,5.65,5.65,0,0,0-2-1c-1.16-.26-1.7,0-1.36.53.34.68-1.8,1-3.13,1.3-2.76.64-2.61,1.88-2.44,2.21.09.17.41.17.34.44-.28,1.07.49.87,1.17.79a3.08,3.08,0,0,0-.12.69,3.7,3.7,0,0,1,.81-.11c.23,0,.62-.25.8-.14a7.79,7.79,0,0,1,.85.62c.06,0,.11.11.18.15s0,0,.65.65l2.8,2.84c2.36,2.41,4.88,4.75,7.58,7.36-.81.24-4.23-2,2.6,5.13l-1.25-.09.84.92a.15.15,0,0,0,0,.07v.12a.28.28,0,0,1-.18.2c-.34.14-.37,0-.2.11a2.9,2.9,0,0,1,.6.42l.18.09a1.1,1.1,0,0,1-.32.11l-1.44,1.05-1.48,1A112.34,112.34,0,0,0,221.39,298c-.71.67-1.8,1.55-2.73,2.3l-2.93,2.35-.11,0c-.08,0-.15,0-.24,0l-.2,0-6.47-6.31-2.44-2.44c-.5-.51-.21-.2-.33-.35a.25.25,0,0,1,0-.29,1.54,1.54,0,0,1,.32-.22l2.14-2.75,2.53-3.38a17.64,17.64,0,0,1,1.23-1.51c3-2.91,3.17-4.33,4.71-6.45a2.42,2.42,0,0,0,.56-1.76c0-.3-.69.22-.58-.21.29-1.07,1.82-3.77,1.08-3.42-.95.44.07-1.2.85-2.65l-3.31,3.65c2.89-4.18.26-2.36,3.94-7.34l-1.4,1.54,1.43-5.27L213,271.65c-.22-.18,0-1.05-.77-.42-2.11,1.69-5.07,5.88-7.33,8.82a37.3,37.3,0,0,1-4.36,5.08,21.09,21.09,0,0,0-2.11,2.17,8.71,8.71,0,0,0-1,1.32,9.84,9.84,0,0,0-1,2.26l-.15,0a9.61,9.61,0,0,1,1.86-3.77Zm22.64,30a12.68,12.68,0,0,1-4.3,3,10.64,10.64,0,0,1-4.2.46,11.73,11.73,0,0,0,3.21-.51l-.11,0a12.28,12.28,0,0,1-4.3.27C218.25,316.79,222,314.46,223.58,313.38ZM203,290.65l6.12-7.4,0,.39-1.71,2-2.66,3.48-1.36,1.77a5.69,5.69,0,0,0-.63,1.05c-.09.2-.37.3-.56.48l-.11-.27A4.16,4.16,0,0,1,203,290.65Zm-9.13,29.81c-.11.12-.57-.07-.26.42,1,1.62.53,1.4-2.22-1.37l-5.52-5.41a26.16,26.16,0,0,1-7.5-12.29c-.47-1.77-.64-3.86-.44-3.53a34.18,34.18,0,0,0,4.4,6.27c.83.84,2,3.39,5.7,7.08l9.89,10.23a24.62,24.62,0,0,0,11.34,6.59c11.17,3.25,21.59-3.45,17.74-.24a16.33,16.33,0,0,1-2.54,1.28,26.46,26.46,0,0,1-21.34-.67,32.71,32.71,0,0,1-5.64-4.71l-.84-.84Zm59.1-21.86a18.53,18.53,0,0,0,6.26-10.49,17.28,17.28,0,0,0,1.56-3,20.23,20.23,0,0,0,.9-3.89,22.54,22.54,0,0,1-1,10.06,19,19,0,0,1-6.58,9,45.82,45.82,0,0,0-3.87,3.29,31.45,31.45,0,0,0-3,3.67,15,15,0,0,1-3.71,3.49c-2.45,1.82-5.78,4.8-6.84,4.72-.52,0-3.08,1.64-4.57,2.41-.48.25-.81.3-.7,0a17.05,17.05,0,0,1,1.1-1.73l12.13-10.47,3.62-3.24,1.94-1.65Zm-53.36-40.06a27,27,0,0,1-1.86,2.63l-5.9,7.06.28-1.1-.57.87-3.87,3.89-1.93,1.95-1,1-.49.49-.88,1a28.25,28.25,0,0,0-5.69,10c0-.39.07-.79.14-1.18a28.84,28.84,0,0,1,4.9-9.38l6.69-8.38c2.1-2.62,4.21-5.19,6.4-7.55C200,255.38,202.11,254.36,199.58,258.54Zm142.35-83.86c11.16,11.26,21.52,22.39,16.89,18.24-.45-.41-1.64-1.56-2.7-2.6l-20.48-20.2c-1.78-1.93-3.63-4-6.45-7-1.3-1.38-4.51-4.57-6.85-6.94,0,.07-.92-.67,0,.36,3.12,3.44,2.17,2.62-4.65-4.26-8.86-8.94-18.42-18.36-26.38-26.75a38.68,38.68,0,0,1-3-3.37c2.21,1.7,4.86,3.84,7.71,6.19,1.23,1,4,3.76,9.11,8.95C317.27,149.72,329.63,162.27,341.94,174.68Z"/></svg>