<svg id="Layer_1" data-name="Layer 1" xmlns="http://www.w3.org/2000/svg" viewBox="0 0 512 512"><title>microphone-handdrawn</title><path d="M291.37,16.32c-.41.7,2.29.34,1.87,1.07s-26-10.05-26.8-8.6C265.1,11.08,299.23,25,298.15,26.9c-1.39,2.39-47.84-24.14-49-22.16-1.48,2.54,58.81,28,56.38,32.19-1.05,1.8-43.83-25.5-45.16-23.24-1.67,2.86,48.9,22.11,46.35,26.47-.9,1.55-49.69-28.91-50.83-27-2,3.47,54,25.65,51.7,29.52-1.11,1.9-61.65-36.44-63-34.06-1.95,3.34,72,35.09,69.35,39.6-1.38,2.36-71-38.25-72.7-35.36-2.65,4.54,79.05,39.47,76.57,43.72-2.67,4.57-80-48.3-82.58-43.83S326.77,58,323.66,63.31c-3.51,6-88.5-56.63-91.83-50.92-3.24,5.55,89.11,43.54,85.9,49.05-2.74,4.69-81.85-46.72-84.46-42.25-3.5,6,85.9,42.54,83,47.42-2.09,3.58-87.1-51.46-89.69-47-3.16,5.42,88.21,41.52,84.33,48.16-2.66,4.56-79.34-49.51-82.1-44.79-2.26,3.88,93.55,47.67,91,52-2.81,4.81-96.19-58.64-97.93-55.66-2.7,4.62,93.2,44.71,89.47,51.09C308.14,76,224.1,17,222.37,19.94,220.15,23.75,325.49,73.09,323,77.4c-3.48,6-96.67-63.11-100.31-56.87-3,5.06,91,46.64,88.63,50.62-2.12,3.64-90.2-52.31-91.9-49.39-2.17,3.72,106.89,56.12,104.74,59.81-2,3.4-105.38-61.14-107.81-57-2.76,4.72,111.75,55.72,108.21,61.79-3.86,6.62-114.33-71-118.27-64.27C203,27.69,322.54,83,320.16,87.13c-4.25,7.28-113.42-66-116.23-61.14-4.69,8,111.43,52.75,106.66,60.91-3,5.1-92-59.63-95.36-53.87-2.49,4.27,104.47,54,102,58.25C313.31,98,212,30.14,209.31,34.72,206.75,39.11,320.93,89.43,317,96.21c-3.57,6.11-109-62.07-111.69-57.43-4.89,8.37,112.74,58.35,110.1,62.88-3.87,6.64-109.5-66.29-111.78-62.37-4,6.93,117.91,55.59,112.77,64.4C312.1,111,206.61,33.12,202.1,40.84c-3.72,6.38,124.1,65,121.53,69.4-2.91,5-114.26-71.25-117.87-65.07-3.12,5.35,114.92,57.87,111.53,63.69-3.59,6.15-111.52-72-115.4-65.33-5.23,9,116.91,58,113.1,64.59-4.1,7-115.89-75-120.17-67.66-2.74,4.7,125.17,62.81,121.38,69.31-2,3.48-111.87-70-116.43-62.21-5.16,8.84,123.51,60.92,119.3,68.13S192.82,39.35,188.9,46.06C184.68,53.3,320,110.64,315.47,118.34,312.9,122.75,201.6,45.68,197.32,53c-3.55,6.08,127.67,65.36,124.37,71-4,6.88-122.68-76.75-126.46-70.27-4,6.88,119.6,61,116.43,66.49-4.25,7.28-107.87-65.57-109.94-62C197.84,64.86,326,118.08,321.1,126.41c-2.32,4-131-74.92-133.77-70.21-5,8.48,133.17,63.47,127.66,72.9-4.65,8-123.71-75.52-127.06-69.77-5,8.56,128.41,61,123,70.25-3.49,6-114.29-67.81-117.87-61.68-2.76,4.72,128.94,65.67,125.45,71.64-5.15,8.83-130.22-82.88-134.6-75.39-3.53,6,138,69.08,133.76,76.39-3.58,6.12-125.05-77.45-129.62-69.62-3.33,5.71,137.14,66,131.76,75.24-4,6.93-123-72.13-126.08-66.84s131,65.75,127.07,72.57c-4.07,7-125.93-72.28-128.77-67.42-3.44,5.89,123,62.38,119.53,68.26-4.74,8.11-118.67-70-121.24-65.61-3.43,5.87,137.91,71.62,134.78,77-3.52,6-136.44-86-140.33-79.35C182.3,89.07,319,154.3,315.94,159.62,312.32,165.82,193,89.28,190.27,94c-3.72,6.37,133.19,69.58,130.35,74.44-2.94,5-123.76-77.23-128.75-68.68-2.72,4.67,128.16,61.13,122.88,70.17-3.49,6-126.43-78.48-130.8-71-3.83,6.57,141.13,72.55,137.61,78.58-4.49,7.69-121.26-73.48-124.82-67.38-3.84,6.57,119,62.1,116.46,66.51-2.71,4.64-113.82-71.47-117.59-65-4.85,8.31,123.83,59.55,118.94,67.92-2.8,4.8-117-72-120.87-65.33-4.89,8.38,133.36,68.12,129.84,74.15-4.83,8.27-121.77-73.29-126.16-65.77-3.41,5.84,124.73,58.36,119.1,68-3.56,6.1-125.38-79.45-129.89-71.74C183,125,327.38,190,323.3,197c-3.92,6.71-127.38-73.39-130.36-68.28-5.18,8.87,128.38,60.45,122.75,70.1C311.3,206.31,201,125.52,197,132.28c-3.81,6.54,127.75,67.33,125.29,71.55-2.73,4.69-131.88-76.2-134.61-71.52-4.39,7.52,132.65,70.15,130.2,74.35-3.21,5.49-120.77-70.07-123.14-66C191,147.13,329.69,206,324.57,214.79c-2.45,4.19-136.09-82.69-139.85-76.25-4.74,8.12,143.08,71.79,138.74,79.23-3.69,6.32-128.91-79.63-131.56-75.09-4.51,7.73,124.21,63.76,121.07,69.14-4.41,7.55-121-76.72-125.82-68.46-3.6,6.17,135.61,69.92,132.32,75.56-3.06,5.24-117.09-75.32-121-68.58C193,159.69,323,211.21,318.52,218.9c-3.41,5.85-127.38-77.82-131.49-70.76-4.25,7.29,141.84,69.83,137,78.21-3.18,5.45-131.19-85.11-136.64-75.78-3.83,6.56,128.22,62.39,123.48,70.52-4.65,8-114.66-68.4-117.33-63.81-4.15,7.11,123.72,64.89,121.19,69.21-4,6.82-119.59-71.18-122.6-66-3.56,6.11,125.85,65.71,123.15,70.33C312.76,235,186,154.23,183.37,158.72c-4.78,8.19,143.13,75.71,140.49,80.23-5.4,9.25-135.47-87.1-140.5-78.48-3.59,6.14,136.19,71,133.23,76.08-3.22,5.52-128-76.67-131.57-70.51-3.49,6,142.89,68.78,137.28,78.39-4.24,7.27-126.18-77.73-129.37-72.27-4.29,7.35,131,68.44,128.23,73.23-4.32,7.4-128.34-78.71-131.15-73.9-4.59,7.87,127.53,63.5,123.45,70.5-4.75,8.13-124.25-72.79-126.63-68.73-5,8.49,130,63.28,125.18,71.49-2.71,4.65-116.15-70-118.29-66.31C188.13,188,325.94,247,322.89,252.2c-4.59,7.86-126.52-77.44-130.43-70.74-3.11,5.33,131.72,65.33,127.39,72.75-2.91,5-122.56-74-126-68.05-4.7,8.06,135.07,66.84,130.57,74.56-2.47,4.23-127-73.06-129.36-69-5.6,9.59,127.24,65.34,124,70.83-4,6.93-121.31-76.23-125.37-69.26-3.23,5.54,131.62,65.51,127.39,72.75-3.46,5.93-128.75-82-133.45-73.95-5.58,9.55,136.64,67.79,132.15,75.47-4.65,8-124.67-80.18-128.87-73-3.67,6.29,135,71.17,132.4,75.61-2.85,4.87-132.9-84.89-137.83-76.45-3.24,5.55,141.26,75.11,138.83,79.28-2.68,4.59-124.27-74.73-126.64-70.66-4,6.86,133,63.09,127.35,72.73-2.58,4.42-130.75-85.77-136.1-76.6-3.34,5.72,137.38,65.92,131.89,75.32C318.38,278,197.49,199.1,194.62,204S324.89,271.15,321.7,276.6c-2.62,4.48-128.76-75.08-132-69.51C185,215.11,328.47,275,323.5,283.5c-4.54,7.78-123.23-72.13-126.43-66.64-4,6.86,128.27,60.91,122.87,70.16-3,5.07-130.58-75.12-132.91-71.13-3.67,6.3,135.66,69.6,132.21,75.5s-120.83-72.27-123.42-67.83c-3.17,5.44,126.85,65.58,123.85,70.72-4.39,7.52-119.65-68.69-122.12-64.46-5,8.59,121.72,63.87,119.25,68.1-4.79,8.21-128.1-81.48-132.37-74.17C179,233,323.2,295,319.69,301c-3.85,6.59-127-80.45-130.71-74.1-5.53,9.47,127.83,65.72,124.65,71.18-2.42,4.14-121-71.18-124.6-65.07-3.42,5.86,130.33,64.43,126,71.93S187.15,227.5,184.7,231.71c-4.26,7.29,140,69.52,135.4,77.32C314.91,317.92,188,232.86,185,238c-4.66,8,133.89,64.24,128.54,73.4-2.6,4.46-110.42-71.33-114.78-63.86S308,298.89,303.2,307.17c-3.9,6.69-114.37-64.56-116.36-61.16-2.78,4.75,128.94,65.84,125.53,71.68-3.08,5.27-114.53-71.9-117.64-66.57C191.86,256,311.47,312.05,309,316.35c-3.24,5.55-121.35-75.64-124.79-69.74-2.38,4.08,133.34,65.68,128.76,73.53-2.57,4.4-117-70.79-121.36-63.4-2.57,4.41,121.69,59.95,117.51,67.11-3.62,6.2-109.57-63.35-111.74-59.63-3.05,5.23,109.56,54.75,106.14,60.61-4.13,7.07-116.1-70.34-119.37-64.74-4.67,8,124.69,62.35,120.81,69C301.7,334.6,202.17,267.33,199,272.74,196.95,276.28,304.14,325.5,301,331c-4.43,7.59-112-65.68-114.22-62-3.7,6.34,109,55.25,105.93,60.49C290,334,198.22,268.22,194.4,274.77c-3.37,5.77,99.58,47.51,95.48,54.53-1.68,2.88-95.78-56.43-98.51-51.76-3.62,6.21,99.85,50.51,97,55.39-3.15,5.4-89.33-54.57-91.77-50.39-3.39,5.81,98.46,47,94.41,53.92-2.43,4.15-96-57.37-98.15-53.75-2.93,5,103.34,49.45,99.16,56.62-1.77,3-94.88-58.92-97.84-53.86-3.9,6.68,89.29,46,87.11,49.74C277.62,341.5,188,284,186.33,287c-2.77,4.74,94.39,44.88,90.44,51.65-2.95,5-88.93-50.45-91.45-46.13-1.82,3.11,88.92,43.21,85.6,48.89-2.47,4.22-76.59-49.44-79.2-45-3.38,5.8,84.13,41.12,81.1,46.31-1.43,2.46-78-50.66-80.94-45.6-3.38,5.78,81,39.7,78.16,44.64-2.53,4.34-76.24-46.4-79.21-41.3-2,3.35,82.26,39.63,79,45.14-2.34,4-74.31-43-75.8-40.42-2.65,4.53,76.22,36,72.93,41.65-2.29,3.92-71.12-46.79-74.07-41.75-2.31,3.95,72.16,36,69.87,39.9-2.51,4.31-67.94-40.1-69.88-36.77-1.52,2.61,75.63,37.08,73,41.66-1.6,2.75-69.91-40-71.63-37.08C192.13,316.4,263.3,347,261,350.91s-66-40-67.73-37c-1.92,3.3,62,32.39,60.69,34.66-1.21,2.07-57.77-35-60-31.2-1.92,3.28,63,32.28,61.4,35.06-1.73,3-50.48-28.82-52-26.15s39.11,18.26,37.33,21.32c-1.08,1.85-26.73-15.2-27.72-13.5s32.34,16.38,31.43,17.95-25.57-12.23-26.27-11c-.58,1,1.65-.49,1,.59-.23.39-6.09-3-6.23-2.78s6.38,2.75,6,3.42" fill="none" stroke="#999" stroke-linecap="round" stroke-linejoin="round" stroke-width="1.17"/><path d="M268.5,382.2s3.17,1.76,3.14,1.8c-.26.45-14.34-2.51-14.79-1.74-.33.57,15.1,8,14.83,8.47-.68,1.16-24.28-9.34-24.84-8.37s13.94,6.06,13.1,7.48c-.06.1-2.35,1-2.42,1.16-.63,1.08,3.13-.41,2.17,1.24-.11.19-6.65-2-6.78-1.81-.81,1.39,7.38,2.15,6.48,3.7-.26.44-14.9-7.31-15.22-6.76-.74,1.27,21.43,9.94,20.43,11.67-.28.48-15.9-3.71-16.24-3.12-.9,1.55,19.07,9,18.23,10.41-.63,1.09-19.94-9.48-20.56-8.42-.84,1.43,26.51,12.84,25.5,14.56s-26.36-15.75-27.33-14.08,22.29,10.39,21.26,12.14c-.4.69-13.4-2.55-13.78-1.89-1,1.78,12.71,5.32,11.86,6.77-.32.55-14.47-5-14.87-4.29-.91,1.55,10.36,3.38,9.25,5.28-.15.26-5.09-1.17-5.24-.9-.64,1.09,14.89,6.88,14.18,8.1-.6,1-20.48-12.28-20.85-11.65-.76,1.3,13.44,5.29,12.4,7.08-.42.72-11.4-6.6-11.62-6.22-.62,1.07,23.88,12,23.18,13.24s-21.72-13.84-22.53-12.45,11.5,5.09,10.85,6.2c-.24.42-11.31-3.82-11.51-3.49-.59,1,24.94,12.9,24.35,13.91-.42.72-23.55-10-24.06-9.17-.73,1.25,25.4,12.36,24.46,14s-31.18-16.91-32.22-15.13c-.85,1.45,28.46,14.84,27.84,15.9-.92,1.57-25.95-11-26.55-9.93-1.18,2,18.19,7.65,17,9.7-.16.27-5.16-2.77-5.34-2.46-.63,1.07,12.6,5.78,12,6.84-.49.84-14.61-4-14.95-3.47-.63,1.07,15.66,6.73,14.7,8.39-.43.74-14.76-2.82-15.09-2.26-1.16,2,14.14,6.64,13.51,7.71-.48.83-14.22-7.31-14.51-6.82-1,1.64,16.71,6.76,15.49,8.85-.56,1-15.28-7.66-15.88-6.64-.87,1.5,23.73,12.17,23.13,13.21-.44.75-17.89-9.21-18.43-8.29-.71,1.21,12,5.11,11.26,6.43-.46.78-14.37-8.76-14.87-7.92-1.14,2,12.4,5.18,11.57,6.61-.61,1-17.56-10.51-18.2-9.42s18.5,8.79,17.73,10.12c-.17.29-10.44-2.55-10.82-1.9-.75,1.29,6.89,2.54,6.28,3.58-.46.78-15.08-4.89-15.51-4.16s4.15,1.52,3.78,2.16c-.07.13-3.79-.31-3.92-.09s10.11,5.36,9.93,5.67c-.29.5-9.64-4.19-9.91-3.71-.12.2,6.64,3.58,6.55,3.74-.24.41-6.42-3.17-6.54-3s5.32,2.82,5.22,3-5.12-1.95-5.22-1.78,3.17,1.75,3.14,1.79" fill="none" stroke="#999" stroke-linecap="round" stroke-linejoin="round" stroke-width="1.17"/><path d="M384.39,269.73s3.13,1.74,3.11,1.78c-.26.45-14.31-2.48-14.75-1.72-.31.53,14.35,7.62,14.1,8.05-.66,1.13-23.57-8.89-24.11-8s12.56,5.38,11.77,6.72l-1.09,1.92c-.59,1,1.48-1.22.58.33-.09.15-5.38-1.26-5.49-1.07-.77,1.32,5.83,1.37,5,2.84-.29.5-16.72-8.44-17.08-7.82-.78,1.34,23,10.73,22,12.54-.51.88-27.86-11.19-28.49-10.11-1.23,2.11,30.31,14.68,29.16,16.65s-36.13-19.95-37.29-18c-1.28,2.19,43.05,21.07,41.51,23.71-1.75,3-44.35-27.59-46-24.75s41.26,19.8,39.61,22.62c-1.34,2.3-41.27-20.51-42.55-18.32-2,3.41,41,19.69,39.35,22.47-1.14,2-48.26-26.59-49.67-24.17-1.91,3.28,45.13,20.41,42.79,24.43-1.36,2.33-41-24.55-42.44-22.14S376.6,304,375,306.74c-1.66,2.84-56.82-34.53-57.84-32.77-1.69,2.89,51.63,24.17,49.3,28.16-1.81,3.1-48.3-29.34-49.25-27.71-1.4,2.39,62.26,31.94,60.68,34.65-2.1,3.6-58.56-38.06-60.76-34.28-1.87,3.2,50.42,25.44,49,28-1.26,2.16-54-30-55-28.31-1.43,2.45,68.27,35.75,66.85,38.18s-72.87-40.84-74.53-38c-1.92,3.28,76,37.75,73.5,42-2.83,4.85-84.06-51.32-86.95-46.38-2.36,4,83.27,43.61,81.54,46.57-3.25,5.57-87.22-49.49-89.38-45.8-3.56,6.1,81.39,38.22,77.78,44.42-2.09,3.59-64.79-41.82-67.16-37.76-1.9,3.26,75.45,38.77,73.56,42-3.08,5.28-83.25-47.28-85.35-43.67s86.18,42,83,47.41c-3,5.15-92.2-51.51-94.49-47.6-4.12,7.06,92.53,47.75,90.3,51.57-3.25,5.56-91.93-55.41-93.84-52.13-3.46,5.92,98.63,46.29,94.23,53.81-3.69,6.33-94.94-60.69-98.83-54-3.25,5.56,107.25,56.12,105,60-2.57,4.4-101-62.73-104.21-57.27-2.77,4.74,99.75,50.09,96.74,55.25-3.15,5.4-97.94-63.15-101.35-57.3-4.65,8,102.15,50.58,98.76,56.4-3.65,6.26-103.26-66.7-107.07-60.18C246.8,276.05,360.45,327.57,357,333.4c-1.89,3.23-104.09-64.84-108.33-57.58-4.76,8.16,112.93,55.62,109,62.27-4.07,7-122.66-74-126.47-67.52-4,6.91,124.81,61.47,120.52,68.82-2.51,4.29-110.92-70.73-115.09-63.58C233.29,281.69,360.15,339,357,344.46c-4,6.8-121.3-75.86-125-69.46-3.94,6.76,117.14,59.77,114,65.12-4.2,7.19-106.55-64.77-108.6-61.26-3.82,6.55,122.46,59,117.66,67.19-2.45,4.19-138.23-79.39-141.13-74.42-5.08,8.71,137,65.33,131.36,75-4.95,8.47-131.43-80.41-135-74.3-5.23,9,134.91,64.19,129.29,73.83-3.94,6.75-128.66-77.07-132.7-70.15-3,5.11,140.68,71.72,136.91,78.19-5.69,9.75-143.67-91.6-148.5-83.33-3.86,6.61,151.44,75.84,146.78,83.82-4.14,7.1-144.66-90.3-150-81.23-3.75,6.43,155.35,74.89,149.3,85.26-4.9,8.39-148.46-88.15-152.19-81.75-3.62,6.2,154.23,77.53,149.61,85.44-5.14,8.81-158.32-92.48-161.9-86.34-4.15,7.1,152.57,77.67,148.43,84.76-6.13,10.5-153.13-91.41-156.45-85.72-4.23,7.24,171.2,89,167.35,95.57-4.37,7.49-169.44-107-174.26-98.73-3.13,5.36,168.28,87.32,164.43,93.9-4.92,8.42-166-97.19-169.73-90.76-4.76,8.15,173.19,90.61,169.56,96.83-4,6.94-169.53-107.66-176.4-95.89-3.58,6.13,173.64,83.33,166.71,95.2-4.84,8.3-175-110.09-181.05-99.71C130.34,280.32,324.91,369,320.2,377c-6.45,11.06-173.62-106.94-178.74-98.17-5.22,8.94,170.39,89.32,166.9,95.31-3.95,6.76-165.53-105-171-95.52C130.68,290,314.47,364.55,307.78,376c-4,6.85-166.4-104.07-172-94.51-6.56,11.24,182.38,93.37,177.66,101.45-6.67,11.43-167.2-103.05-173.26-92.67-4.41,7.55,167.36,78.94,160.08,91.42-4.69,8-164.67-105.14-170.6-95-4.55,7.8,180.16,91,175,99.92-5,8.65-163.39-95.92-167.23-89.34-6.31,10.82,160.24,75.83,153.37,87.59-5.51,9.43-144-92.33-149-83.83-4.6,7.88,157.13,83,154.16,88-3.3,5.66-158.88-92.92-162.18-87.26-5.06,8.67,154.4,81.72,151.57,86.56-3.73,6.39-140.11-82-142.87-77.28C138.3,318.25,292.71,384,287,393.65c-2.68,4.59-149-90.89-153.11-83.83-5,8.62,151.94,76.24,147.33,84.13-3.93,6.73-137.32-84.82-140.14-80-4.79,8.2,132.93,68.3,129.6,74-4.66,8-127.86-81.28-133-72.54-3.67,6.28,138.28,71.3,134.92,77-3.12,5.34-119.38-76.8-123.39-69.94C143.77,332,275.56,384.28,271,392.06c-3.39,5.8-126.39-77.18-130.47-70.18s134.71,66.31,130.06,74.27c-3,5.12-123.24-79.82-128.35-71.05-3.51,6,116,56.32,111.64,63.75-4.09,7-101.07-59.91-103.43-55.87-3.59,6.15,104.41,54.64,102.23,58.38-3.24,5.55-97.59-57.34-100-53.14-2.83,4.84,96.3,50.11,94.16,53.77-1.88,3.22-98-57.21-99.95-53.82-3.48,6,104.19,55.12,102.27,58.4C245.3,403.15,152.56,335,149,341.12c-2.47,4.23,91.55,47.63,89.51,51.12s-79.58-45.88-81.79-42.09c-2,3.42,80.51,38.65,77.3,44.15-2.17,3.72-64.89-39.17-66.52-36.38-2.24,3.84,62.84,32.55,61.39,35.05-2,3.5-61-36.87-62.32-34.59-2.25,3.86,54.13,26.33,52.13,29.77-1.72,3-46-24.67-46.89-23.19-1.72,2.95,35.42,16.43,33.76,19.28-.51.87-22.28-12.4-22.68-11.71-1.6,2.74,30,15.14,29.13,16.63-.62,1.07-17.83-9.35-18.37-8.44-.34.58,3,.63,2.52,1.44" fill="none" stroke="#999" stroke-linecap="round" stroke-linejoin="round" stroke-width="1.17"/><path d="M368.38,448.79c-.14.24,6.65,3.46,6.5,3.71-.27.47-14.83-2.82-15.29-2-.75,1.29,10.78,4.76,10.17,5.81-.74,1.26-26.23-10.56-26.84-9.51-.88,1.51,31.16,14.48,29.71,17-.43.74-18.49-9.25-19-8.32-1,1.75,20.33,8.06,18.78,10.72-.41.71-23.17-12.35-23.69-11.46-1.26,2.16,24.79,10.93,23.38,13.35-.62,1.06-34.72-19.66-35.49-18.33-1.24,2.13,42.38,20.36,40.7,23.24-.88,1.51-46.15-22.66-47.23-20.82-1.83,3.13,50.92,25.16,49.21,28.1-1.84,3.15-55.54-32.5-57.34-29.42s64.5,31.73,62.27,35.56c-2.55,4.36-64.35-40.74-66.76-36.6S380.35,480.3,378,484.34c-2,3.49-61.55-33.61-63.5-30.28-2.73,4.67,62.9,30.84,60.68,34.65-1.65,2.82-69-39.84-71-36.35-2.55,4.37,67.06,31.16,63.94,36.51-2.05,3.52-61.46-37.86-63.59-34.21-1.86,3.18,73.81,37.44,71.75,41-2.26,3.88-77.48-47.18-78.88-44.78-2.21,3.79,73.34,34.9,70.28,40.14-2.58,4.43-68.87-42-70.23-39.69-1.83,3.13,83.63,43,81.56,46.58-2.83,4.84-78.69-51.28-81.65-46.21-2.44,4.17,71.65,36.55,69.74,39.83-1.75,3-74.38-42.58-75.78-40.19-1.82,3.12,88.75,46.55,86.94,49.65s-92.5-53.1-94.62-49.46c-2.37,4.05,95.08,47.35,92,52.56-3.44,5.9-102-63-105.49-57-2.84,4.87,100.74,52.79,98.66,56.34-3.89,6.66-103.92-60-106.5-55.58-4.11,7,95.93,45.25,91.76,52.4-2.53,4.34-78.28-50.65-81.14-45.75-2.18,3.74,89.36,46.07,87.19,49.79-3.58,6.14-96.53-55.65-99-51.46-2.22,3.8,94.76,46.28,91.33,52.16-3.28,5.61-100.31-56.61-102.8-52.35-4.12,7.05,92.37,47.67,90.14,51.48-3.24,5.56-91.78-55.32-93.69-52-3.39,5.81,96.44,45.23,92.13,52.61-3.62,6.19-92.92-59.35-96.73-52.82-3.09,5.3,101.9,53.31,99.76,57-2.44,4.17-95.95-59.46-99-54.28-2.57,4.41,91.53,45.88,88.73,50.67-2.9,5-90.19-58.1-93.33-52.73-4.3,7.36,93.17,46,90,51.41-3.35,5.75-94.84-61.18-98.34-55.19-2.25,3.85,101,50.55,97.86,55.89-1.71,2.93-94.56-58.49-98.4-51.92-4.17,7.14,97.22,47.76,93.83,53.58-3.57,6.12-107.91-64.55-111.25-58.83S314.56,498.11,311,504.26c-2,3.5-90.65-57.39-94.05-51.57-2.81,4.82,99.15,50.64,96.53,55.13-3.21,5.5-98.33-61.11-101.35-55.93-3.17,5.43,90.43,45.92,87.92,50.21-3.18,5.46-80.95-49-82.5-46.35-3,5.22,94.44,45.18,90.61,51.75-2,3.37-111.75-63-114.08-59-3.85,6.6,101.5,48.18,97.22,55.52-3.68,6.31-98.19-59.35-100.85-54.81-3.87,6.63,96.14,45.37,92,52.52-2.81,4.82-92.5-53.77-95.38-48.84-2.12,3.63,95.83,48.61,93.16,53.2-4,6.86-101.35-64.17-104.75-58.34C172.71,452.41,280,500,276.76,505.64c-2.87,4.92-100.84-61.57-104.51-55.28-2.55,4.37,103.11,49.49,99,56.53-3.26,5.58-99.41-57.28-101.89-53-2.38,4.07,96.93,48.43,93.9,53.62C259.91,513.22,159.4,449,157.07,453c-2.62,4.49,88.92,44.8,86.3,49.28-3.67,6.28-92.19-53.56-94.18-50.16C146.58,456.56,253,505.92,250.6,510c-2.71,4.64-105.07-66.05-108.06-60.93-1.92,3.29,99.84,51.63,97.49,55.67-2.85,4.89-97.34-54.39-99.52-50.66-2.74,4.69,95.54,49.79,93.45,53.37-2.18,3.74-92.38-56.38-96.09-50-1.92,3.3,85.5,40.31,81.77,46.7-2.45,4.2-89.37-54.36-92.43-49.1-2.61,4.47,95.23,48.91,92.83,53-2.93,5-79.83-47-82.16-43-2.48,4.25,68.65,35.41,67,38.26s-67.08-41.2-69.29-37.41c-3,5.22,70,32.93,66.88,38.19-1.61,2.76-67.92-40.22-70.17-36.37-2.89,5,74.78,38,72.7,41.52-2.66,4.55-68.14-38.16-70.55-34-1.79,3.07,55.53,25,52.57,30-1.73,3-61.48-37.67-63.67-33.92-1.78,3,68.29,34.37,66.26,37.84-1.76,3-58.7-30.42-60-28.12-2.18,3.74,44.06,19.75,41.69,23.81-1.38,2.36-36.37-22.35-37.61-20.23-1.55,2.65,43.05,22.31,42.05,24s-50.36-25.73-51.37-24c-1.49,2.55,38.47,20.07,37.64,21.49S131.95,492,131.38,493c-1.08,1.85,31.22,14.49,29.76,17-.67,1.15-38.29-20.61-39.32-18.85-1.13,1.93,33,16.47,31.93,18.23-.69,1.19-24.25-14.95-24.75-14.1-1.07,1.83,14.94,6.83,14.19,8.11-.59,1-17.37-8-18-6.9s19.24,9.58,18.63,10.64c-.17.29-6.81-3.86-7-3.48-1,1.68,6,1.56,5.15,2.94-.29.5-12.18-3.44-12.54-2.83s9.85,4.63,9.41,5.38c-.21.36-9.17-4.88-9.54-4.26-.11.18,6.63,3.48,6.49,3.71" fill="none" stroke="#999" stroke-linecap="round" stroke-linejoin="round" stroke-width="1.17"/><path d="M125.88,271.64c3.41,70.31,60.82,126.1,130.86,125.76s126.9-56.69,129.6-127Z" fill="none" stroke="#fff" stroke-miterlimit="10" stroke-width="46.98"/><path d="M324.07,285.6c2.57-6.35,2.71-1.41.16-8.07,1.4,11.45,1.19,9.88-.41-1.57,2.32,52.6-29.79,82.34-68.23,76.54-38.75-1.81-70.26-22.15-68.62-69.82-2.18,1.28-2.22,2.25-.69-2.53-1.18,4.45-2.21.62.37.85-1.39,3.11-4.17-203.32-2.42-206.7-1.39-45.08,30.81-75,68-64.66,40.46-11,73.1,29.43,69.77,58.76C325.19,79,324.55,281.77,324.07,285.6Z" fill="none" stroke="#666" stroke-width="2.94"/><path d="M270.52,461.78c.2.66-29.77.63-29.68.26,0-.67-.88-80-.54-79.68,0-.14,30.07.65,30.25,1.18C270.57,381.61,270.92,462.15,270.52,461.78Z" fill="none" stroke="#666" stroke-width="2.94"/><path d="M125.87,269.8c3.06,70.56,58.64,130,132.07,125.54,67,4,124.85-55.68,126.54-123.75C387.3,270.26,127.07,269,125.87,269.8Z" fill="none" stroke="#666" stroke-width="2.94"/><path d="M383.59,486.65c-.55,11.46-9.51,23.44-22.59,21,2.43,2.82-220.57,3.39-214.36,2.82-15.8-1.18-29.22-9.84-25.17-23-1.26.3-4-17.46,3.29-15.7-6.07-13.13,5.76-24.14,19.94-22.67-4,.08,217.29-2.59,212.16-.35,19.59-2.78,26.17,7.71,22.89,21.53C387.14,470.31,382.86,487,383.59,486.65Z" fill="none" stroke="#666" stroke-width="2.94"/><path d="M325.32,280.56c-.92,1.92-4-3.26.07,2.21,1.27-2.5-3.61-1.34-.09.84.09,39.55-33.58,63.93-69.87,70.9-38.6-1.66-67.49-34.65-72.72-66.41,5.42-8.22,2.53-7.14,3.87-4-2.57-4.53-3-3,0-1.2-3.69-.5-2.44-204-3.23-211.45C182,39.94,217.89,6.31,254.83,1c34.4,4.63,69.87,37.83,71.16,72.3C322.56,75.44,325,276.14,325.32,280.56Z" fill="none" stroke="#4c4c4c" stroke-width="2.2"/><path d="M270.94,462c-.12-1.32-30.15-1.48-30.08-.59.11-.8-.57-78.54-.34-79.57-.6,1,30.15,1.28,29.88,1.13C270.36,382.75,270.19,459.86,270.94,462Z" fill="none" stroke="#4c4c4c" stroke-width="2.2"/><path d="M124.34,272.1c6.9,70.31,63.28,124.66,129.26,126.41,74.57-1.43,127.63-57.79,130.52-128.75C380.73,271.93,129.38,272.93,124.34,272.1Z" fill="none" stroke="#4c4c4c" stroke-width="2.2"/><path d="M383.81,485.82c-6.56,12.4-9.12,22.65-22.35,24-6.87-1.1-213.44-.26-217.46.3-16.63.19-18.15-10.67-24.72-22.78,3.71-.06,2.84-16.75,1.11-16.18-1.52-12.78,11.73-22.38,23.23-23-3.08.38,211.1-.43,222.28-1.28,7.76.08,19.54,10.68,18,22.88C380.29,470.16,383.94,485.69,383.81,485.82Z" fill="none" stroke="#4c4c4c" stroke-width="2.2"/></svg>