<svg id="Layer_1" data-name="Layer 1" xmlns="http://www.w3.org/2000/svg" viewBox="0 0 512 512"><title>forward-arrows-handdrawn</title><path d="M48.75,7.77c-.32.56,14.42,7.65,14.13,8.16-.18.3-1.91,4.82-2,5-6,10.35,186.64,94.46,180.88,104.44C236.39,134.65,61.22,9.41,53.92,22.06c-10.82,18.74,370.17,187,358.59,207C400.23,250.37,65.67,10.44,56.89,25.65,44.54,47,465.12,234.6,453.53,254.67c-14.82,25.67-384-252.11-398-227.89C48,39.79,467.86,238.49,456.45,258.26,444.63,278.73,67.9,1,53.19,26.48,42.72,44.61,459,232.19,446.61,253.63,437.85,268.8,65.42,22.73,58.39,34.9c-12.55,21.73,400.41,211.86,392,226.36C439.47,280.25,68.1,26,61,38.25,45,66.05,446.47,243.95,439.17,256.58,426.8,278,61.15,26.69,53.84,39.35,42.11,59.66,446.57,239.39,435,259.42,425.21,276.38,68.09,32.9,59.66,47.5c-7.37,12.76,380,202.18,372.58,215.12C417.66,287.88,63.15,32.93,54.93,47.16,47.75,59.59,434.66,243,424.51,260.55,415.62,276,69.28,39.06,59.46,56.07,48.78,74.56,432.54,241.44,419.54,264,407.91,284.11,69.25,42.67,60,58.73c-10.8,18.71,370.35,189,359.61,207.63C412.89,278,70.14,45.26,60,62.8c-12.14,21,379,185.91,364.73,210.59C415.12,290.05,61.92,45.3,52.07,62.36c-11.41,19.77,377.68,192.7,366.7,211.72C412.14,285.56,65.54,56.28,58.78,68,45.39,91.18,437.06,257.13,424.39,279.09c-10.55,18.27-356-237.52-370.93-211.7-14.07,24.37,370.9,188,359.6,207.62C405.14,288.72,66,42.59,51.68,67.34c-7,12.18,376.72,183.25,361.89,208.95C405.9,289.57,75.29,60.87,63.82,80.74,57.36,91.94,423.09,267.9,414.31,283.1c-9.83,17-336.42-221-349.14-199-11.52,20,356.45,177.6,344.24,198.75C403.3,293.48,70.78,74.44,62.26,89.2,50.92,108.83,400,269.33,393.56,280.49,385.92,293.73,68.17,72.38,57.27,91.25c-9,15.6,340.06,175.4,331,191.11C378.69,298.92,72.17,79.51,61.52,98,53.2,112.37,407.85,274.9,397.88,292.17,385.32,313.92,72.36,81.4,62,99.37c-7.44,12.89,339.13,177.33,331.13,191.19-6.67,11.56-333.78-205.83-340.6-194-12.88,22.31,352.87,172.61,339.39,196C381.74,310.12,67.43,95,60.12,107.63c-13.29,23,331.8,170.21,322.55,186.23C374.09,308.73,60.85,99.58,54.07,111.33,42.28,131.75,384.09,286.26,377.33,298,367.86,314.39,68,101.59,59.39,116.54c-13.2,22.87,333.68,164.35,321.42,185.58C374.88,312.38,60.66,108.55,54.39,119.41c-10.37,18,331.69,169.54,322.18,186C368.7,319.05,62,110.27,54.55,123.12,44.95,139.75,384.13,285,371.84,306.31,363.34,321,63,116.58,55.5,129.56,49.06,140.72,372.89,297.47,366.24,309c-6.76,11.71-304.36-195.45-315-177C40.41,150.73,358.14,294.64,351.86,305.51c-10.41,18-277-184.22-288-165.06-9,15.59,298,152.31,289.48,167.14-11.14,19.29-289.89-176.95-295-168-9.87,17.1,305.49,158.58,297.78,171.93C350.27,321.5,63.37,125.42,53.83,142,48.35,151.44,356.77,304,351.21,313.66,343.5,327,63.7,126.09,53.42,143.9,41.81,164,350.73,303,345.29,312.42c-7.44,12.88-273.37-175-283.61-157.22-8,13.79,298.17,154.34,290.46,167.7-5.21,9-283.71-184.68-293.3-168.07C49.12,171.64,356.59,312.13,350.26,323.1c-11.15,19.32-286.49-182.9-296-166.38C43.31,175.63,352.1,313.48,345.51,324.9,334.17,344.55,64.84,154.49,58.46,165.55,52.53,175.81,352,309.88,341.12,328.75,335.69,338.16,65,147.7,53.57,167.49,44.11,183.88,338.86,316.31,332,328.23c-5.12,8.86-268-169.88-276.65-155C48.66,184.8,338.47,317.54,330.16,331.94,324.8,341.23,72.68,160.19,62.56,177.73,57.44,186.59,340,314.36,329.82,332c-9,15.64-258.09-162.75-265.32-150.24C57,194.82,342,316.55,331,335.66c-6.17,10.69-263.64-164.83-272.18-150C52.37,196.73,327.9,316.81,317.42,335c-5,8.6-255.34-167.07-265.61-149.29C44,199.21,326.42,327.18,319,340,313,350.38,55.9,175.09,49.15,186.78,40,202.71,326.61,330,319.23,342.72,310.15,358.47,69.68,185.81,63,197.31c-9.69,16.78,252.77,129.31,245.57,141.79C301.16,352,57.75,178.9,50.58,191.31,44.78,201.37,320.91,328,312.51,342.54c-4.6,8-241.24-148.21-248.11-136.31-6.26,10.85,251.4,121.15,241,139.15C297.73,358.68,62.8,196.09,56.54,206.94,47.42,222.73,303,331.06,295.16,344.72c-7,12.06-227.72-142.31-234.66-130.29C52.3,228.64,295,333.89,288.09,345.83,281.54,357.18,61.57,212,57.39,219.21,51.13,230.05,289,337.63,282.4,349.13c-6.05,10.49-211.34-137-218-125.45-6.35,11,233.87,124.91,229.49,132.5-8.65,15-225.58-140.94-232.73-128.57C53.44,240.92,296.82,347.9,290,359.75,283.54,370.91,59.68,210.86,51.47,225.1,45.9,234.74,286.57,349.43,281.63,358c-5.75,10-210.48-136.63-218.09-123.45-7.12,12.34,215.3,112.54,210.2,121.37C268.91,364.27,56.17,220.85,52,228.12,44,241.88,288.43,346.1,280.4,360,274.67,370,55.59,220.22,50.13,229.68,41,245.51,279.95,343.18,271.64,357.57,267.56,364.63,59,220.68,51.52,233.7c-8,13.87,231.64,119.33,225.4,130.14S55.68,232.59,51.23,240.3C42.45,255.51,276.08,353.47,268.87,366,261.53,378.68,56.42,236.74,50.55,246.91,43.48,259.14,268.3,354.29,260.36,368.05,253.79,379.42,61,244.84,56,253.41c-8.14,14.1,207,109.66,202.72,117-5.66,9.8-193.5-121-200.64-108.61C52.25,272,259.07,358.37,250.61,373,244.84,383,60.87,253,53.87,265.09c-7.24,12.54,204.92,103.66,198.57,114.65C248.06,387.33,57.2,258.92,50.6,270.34c-7.77,13.46,205,102.43,198.1,114.38C242.85,394.85,69.1,276,64.09,284.63c-6.22,10.77,181.27,90.81,175.27,101.2C233.11,396.66,68,279.16,63.53,287c-7.7,13.34,182,87.38,174.31,100.64C230.81,399.76,55.95,274.86,50,285.18s193.38,98.17,187.55,108.28C234.2,399.23,61.32,282.08,57.1,289.39,50.62,300.61,228.31,375.28,222.7,385c-3.11,5.39-154.17-91-157.87-84.62-3.41,5.9,170.93,84.27,164.69,95.09C223.13,406.53,60,290.82,55.18,299.16c-6.58,11.39,163.4,84.17,159,91.8-3.93,6.81-146.43-89.35-150.45-82.38-7,12.06,162.94,79.63,156.68,90.47-4.15,7.19-159.46-99.93-165.79-89-6.53,11.32,157.54,77.51,151.72,87.6-4.52,7.82-153-90-155.89-85.06-3.8,6.58,153.91,76.84,148.7,85.86-3.93,6.8-135.11-81.95-138.69-75.74C55.8,330.78,201,396,197.63,401.93S58.78,315.64,53.29,325.16c-4.05,7,152.73,74.47,146.79,84.75-3,5.19-136.28-83.08-139.78-77-4.37,7.56,140.22,74.9,137.6,79.45-3.91,6.77-130.48-82-135.69-72.95-4.91,8.5,129.27,65,125.08,72.22C182.2,420.4,59.1,336.67,55.83,342.35c-4.77,8.26,127.66,62.38,122.75,70.87-4.19,7.26-123.05-71-126.1-65.76-5.34,9.25,133.67,70.62,130.83,75.54-3,5.11-118-72.26-120.77-67.43C58,363.42,175.85,410,171.09,418.25,168.6,422.57,57.45,351.17,55,355.34c-2.28,3.95,119.6,62.54,116.78,67.42-3.8,6.58-107-61.43-109.26-57.43-2.91,5,114.32,55.93,110,63.49-4,6.89-104.66-63.38-108.58-56.58-3.63,6.29,104,53.11,101,58.32-2.51,4.35-96.16-59.35-99.78-53.08-4.09,7.08,101.62,53.71,99.48,57.44-4.53,7.85-112.47-66.42-115.31-61.49-3.88,6.72,106.76,54.9,103.84,60-1.8,3.11-101.5-59.41-103.78-55.45-3.62,6.28,97.61,47.54,93.79,54.15-2.57,4.46-87.3-53.91-89.54-50-3,5.22,101.88,51.49,98.71,57-3.95,6.84-98.58-59.16-101-54.94s106.59,53.11,102.94,59.44c-1.76,3.06-96.06-55.78-98.6-51.37C53,396.83,151.85,440,148.5,445.8c-3.14,5.45-82.2-47.48-84.17-44.06-2.42,4.18,82.68,39.85,79.27,45.77-2.28,4-83.83-49.6-85.9-46-2.94,5.09,81.37,39.44,78.11,45.1S55.53,398,53.9,400.85c-2.91,5,90.82,45.64,87.88,50.74-1.68,2.92-78.79-48.51-81.34-44.1-1.68,2.91,71.71,37.11,69.85,40.33-1.46,2.53-76.6-46.74-79.67-41.42-1.48,2.56,80.82,41.79,78.71,45.44-1.72,3-71.12-42.13-72.54-39.67-2.52,4.37,78.71,41.42,77,44.44-1.24,2.15-68.19-38.84-69.56-36.46-2.79,4.84,68.09,32.64,65.2,37.65-2.8,4.86-73.78-40.84-75.14-38.48-2.46,4.26,59.35,28.49,56.85,32.82-1.2,2.08-59.25-33.22-61.51-29.31-2.55,4.41,60.51,31.64,59.08,34.11-.91,1.58-49.09-26.89-50-25.29-2.58,4.48,56.34,27.34,54.1,31.23-.92,1.59-46.61-23.66-48.3-20.74-2.15,3.72,41,19.22,39.09,22.57-.94,1.63-42.07-27.3-43.64-24.58-2,3.38,37.5,18.2,36,20.79-1.14,2-30.81-14.68-31.76-13-1.91,3.31,39.35,20,38.16,22-1.5,2.6-40.4-20.39-41.09-19.18-1.73,3,34.63,16.33,33,19.08-.89,1.53-28.5-12.49-29.12-11.41-1.15,2,31,14.6,29.6,17.09-1.17,2-33.9-18.3-35-16.47-1.57,2.72,35.36,16.47,33.65,19.43-.83,1.44-38.45-21-39.44-19.31-1.42,2.47,36.82,18,35.42,20.45-.59,1-32.92-16.4-34.2-14.18-.77,1.33,32.84,16,31.54,18.21C86,484.93,52.86,469.37,52.2,470.5c-.77,1.34,28.54,14.67,27.76,16-.36.62-18.89-10.65-19.65-9.33-1,1.8,8.5,2.83,7.6,4.39-.16.28-4.42,1-4.53,1.22-.87,1.51,1.66-.33,1.1.64C64.16,484,53.36,477,53,477.68c-.82,1.42,21.48,11.3,21,12.13-.61,1.06-17.74-9.18-18.32-8.17-.84,1.46,6.44,2.53,5.93,3.42-.18.31-4.43,3.35-4.59,3.62-.64,1.11,4.87,1.94,4.49,2.59-.12.21-4.38.81-4.49,1-.49.85,2-.1,1.46.84-.15.27-9.48.45-9.73.88-.38.65,12.71,6.91,12.52,7.23C61,501.74,49,496,48.75,496.5c-.15.25,10.61,5.69,10.42,6s-10.05-5.38-10.42-4.75c-.13.23,9.57,5,9.35,5.4-.32.55-9.18.5-9.35.79,0,.07,4.18,2.32,4.14,2.39s-4-2.34-4.14-2.11c0,.06,3.94,2.2,3.9,2.25s-3.77-1.48-3.9-1.26c0,0,3.07,1.75,3.06,1.77" fill="none" stroke="#999" stroke-linecap="round" stroke-linejoin="round" stroke-width="1.27"/><path d="M49.94,7.19C45.09,7.13,463,254,460.27,257.65c.84,6.29-410,248.28-406.1,249C50.37,499.73,49.83,3.18,49.94,7.19Z" fill="none" stroke="#666" stroke-width="3.18"/><path d="M48,8.73C47.72,7,457.63,261.92,454.32,256.19,448.84,259.71,54.39,505.83,49.25,508,51.28,501.62,59.74,8.69,48,8.73Z" fill="none" stroke="#4c4c4c" stroke-width="2.39"/><path d="M459.81,8.54s3.41,1.93,3.39,2c-.23.4-7.66-.71-7.87-.34s7.38,3.92,7.23,4.18S452.48,12,452.14,12.58c-.44.77,5.89,2.19,5.36,3.1-.4.69-12.33-4.94-12.76-4.21-.79,1.37,16.62,8.44,16.12,9.31-.67,1.16-21.2-12.57-21.81-11.5s16.13,8.23,15.66,9c-.58,1-17.21-9.29-17.62-8.57-.66,1.15,23,11,22,12.71-.39.67-10.6-5.41-10.91-4.87-.87,1.51,12.14,4.76,11.16,6.44-.69,1.19-25.51-11.12-26.28-9.79-1,1.76,30,14.23,28.64,16.54C460.62,32.68,421.19,12,420,14c-1.31,2.28,30.28,14.33,28.91,16.69-1.6,2.77-46.36-23.25-47.72-20.88C399.7,12.46,460,40.34,458.51,42.86,456.94,45.59,404.7,11.4,403.23,14,402,16.1,464,45,462.23,48c-2.21,3.83-62.88-41-65-37.24-2.37,4.11,60.33,28.68,57.67,33.3C453.33,46.73,404,13.46,402.31,16.3c-1.81,3.13,51.26,24.14,48.9,28.23-.95,1.64-49.71-32.14-51.52-29C396.94,20.29,451,39.3,448.46,43.68c-1.36,2.35-52-30.05-53.28-27.86-2.51,4.35,59,29.58,57,32.94S383.72,4.93,381.39,9c-2.54,4.39,71.9,37.32,70.09,40.47C450.2,51.63,381,8.14,379.1,11.5c-1.56,2.71,70.17,34.84,67.71,39.1-2.17,3.77-63-33.87-64.81-30.73-2.68,4.64,82.2,39,78.52,45.33-3,5.2-81.68-47.65-84.49-42.79-3.5,6.06,85.77,44.79,83.72,48.34-2.39,4.13-75.35-48.55-78.35-43.36C378.91,31.71,464.88,69,462,73.93c-1.31,2.26-74.2-45-77.1-40-2.37,4.1,73.36,35.73,70.49,40.7-2.59,4.48-81-46.49-83.7-41.86-3.34,5.79,79.87,42.38,78.25,45.18C447.34,82.47,381.79,39,380.4,41.4c-2.21,3.84,79.84,39.1,76.81,44.35-2,3.42-79.25-47.36-81.87-42.81s87.87,44.68,85.25,49.22c-2.16,3.75-76.94-50.83-80.15-45.27-2.34,4,71.88,37.28,70,40.44C447.81,92,378.91,48.78,377,52.17c-3,5.17,73.56,36.32,70.9,40.93-2.39,4.14-73.6-46.46-76.32-41.76-3.31,5.72,83.13,43.45,81.16,46.86-1.8,3.12-68.88-44.5-71.32-40.28-2.08,3.6,82.71,41,79.77,46.06-2.76,4.78-81.33-44.54-83.16-41.36-2.79,4.84,74,37.87,71.87,41.5-1.67,2.9-76.39-48.38-78.76-44.28-2.14,3.71,84.23,40.61,80.76,46.63-2.16,3.75-75.68-43.3-77.43-40.27-2.88,5,87.57,43.07,84.33,48.69C457.43,117.18,387,72.4,384.42,77c-2.83,4.91,75.9,36.64,72.79,42-1.83,3.17-71.64-40.31-74.26-35.77-2.88,5,80,40.14,77.35,44.66s-80-45.35-81.48-42.8c-3,5.21,79.64,40.28,77.17,44.55-2.3,4-68.47-39.56-70.42-36.19-3.34,5.79,69.89,36.31,68.14,39.34-2.79,4.83-71.89-42.92-74-39.26-2.29,4,71.14,33.4,67.81,39.15-1.44,2.5-63.16-32.47-64.59-30-2.32,4,67.34,32.47,64.57,37.28-1.24,2.15-69-42.88-70.54-40.22-3.1,5.37,74.66,37.81,72.37,41.78-2.17,3.77-70.22-44.44-72.56-40.39-2.15,3.73,86.85,43.42,83.94,48.47-2,3.4-81.33-51.15-83.33-47.69-2.68,4.64,73.41,36.27,70.76,40.85-1.23,2.14-67.62-43.25-69.86-39.38-2.44,4.22,85.32,42.83,82.54,47.65-1.93,3.34-87.27-51.19-90.4-45.78s85.85,43.58,83.26,48.07c-2.45,4.25-78.51-48.23-81.49-43.07-1.69,2.93,78.63,41.13,76.78,44.33s-63.14-37-65.11-33.59c-2.31,4,67.72,32.94,65.05,37.56-2.18,3.78-75.24-44.64-77.63-40.51-3.36,5.81,86.17,45.78,84.45,48.76-1.32,2.28-68.92-36.43-70.64-33.45-2.67,4.62,79.77,41.57,77.83,44.94-3.07,5.32-77.35-42.86-79-40.08-3.66,6.34,82.31,40.59,79.3,45.79-1.48,2.56-82.33-47.09-84-44.19-3.25,5.63,87,42.31,83.56,48.24-2.7,4.68-84.32-53.14-86.27-49.77-2.26,3.91,82.21,41.55,79.65,46-2.8,4.84-77.39-45.64-79.58-41.84-2.69,4.65,80.19,38.3,76.72,44.3-2.66,4.6-70-43.81-72.69-39.21-3.08,5.33,76.21,38.95,74,42.74-2.36,4.09-68.4-40.64-70.46-37.07-3.51,6.08,79.22,39.82,76.66,44.26-1.88,3.25-83.07-49.31-86.39-43.57s78.72,39.77,76.26,44c-1.9,3.3-72.35-47-75.33-41.83-3.49,6,87.38,44,84.59,48.84-3.15,5.46-86.44-49.49-88.4-46.1-2.28,4,80.5,42.19,78.64,45.41-2.88,5-76.75-48.62-79.42-44-3.62,6.26,89,44,85.79,49.53-2.92,5.06-84.6-47.29-87-43.13-3.62,6.27,82.75,41.69,80.12,46.26-1.62,2.8-77.62-45.9-79-43.51-2.25,3.9,91.28,44.39,87.68,50.62-2,3.46-71.87-42.49-73.81-39.13-3,5.25,69.69,34.17,67.07,38.72-2.25,3.9-73.56-42.6-76-38.36-2,3.39,78.25,37,74.73,43.14-2,3.44-71.08-44.74-73.81-40-3,5.27,86.49,46.09,84.82,49-2.52,4.37-88.09-55.61-91.2-50.22-1.84,3.18,93.4,45.89,89.92,51.92-1.68,2.92-86.6-51.93-89.72-46.51-3.48,6,84.31,44.48,82.5,47.63C451.18,239,373.33,192,371,196c-2.65,4.58,79.89,38.62,76.64,44.25-2.4,4.16-66.45-38.51-68-35.75-2.33,4,72.63,37.08,70.53,40.72s-62.65-40.56-64.92-36.64c-3.61,6.26,78.57,41.38,76.84,44.37-3,5.11-85.61-53.81-88.65-48.56-2.37,4.1,92.23,46,89.08,51.43-1.85,3.2-75.87-44.89-77.35-42.33-1.69,2.93,77.18,40.37,75.36,43.51-2.72,4.71-87.75-55.45-90.57-50.56-2.55,4.42,81.33,40.58,78.57,45.36-2.46,4.27-63.34-38.14-65.93-33.65-2.16,3.74,81.25,39,77.81,44.93-1.81,3.14-82.73-49.55-85.8-44.24-3.41,5.91,86.87,43.18,83.85,48.41-1.76,3.06-79.65-48.35-81.43-45.27-2.69,4.66,83,42.11,80.52,46.49-1.45,2.51-82.28-47.62-84-44.67-3,5.22,84.41,43.18,82,47.35-1.46,2.53-73-39.58-74.37-37.19-3.11,5.38,69.24,35.69,67.38,38.9-2.06,3.57-70.73-44.52-72.71-41.09-3.44,6,83.27,44.06,81.53,47.07-2.06,3.57-80.65-47.43-83.69-42.17-2.52,4.36,81.24,42.7,79.42,45.85-2.26,3.92-74.12-42-76.76-37.39-2.2,3.82,84.7,44.73,82.89,47.86-2.58,4.47-85.85-51.58-87.42-48.86-1.89,3.28,92.92,49,90.89,52.48-2.31,4-78.41-47.31-81.46-42-3.47,6,83.81,41.1,80.65,46.57-1.77,3.07-83.9-46.78-85.77-43.54-2.48,4.3,80.4,39.62,77.46,44.72-2.25,3.9-77.17-48.15-80.11-43.06-2.52,4.37,76.19,37.93,73.56,42.47-1.82,3.15-74.16-40.4-75.92-37.36-1.58,2.74,93,48.54,90.8,52.43-3.09,5.35-78.37-47.91-80.28-44.61-3.05,5.28,72.38,36.18,69.95,40.39-2.61,4.52-73.52-44.32-76.43-39.28-2.23,3.87,77,40.37,75.2,43.42-2.63,4.56-65.23-42.09-67.87-37.52-1.75,3,80.69,40.41,78,45-1.88,3.26-72.27-45-74.85-40.53-3.37,5.84,69.47,33.94,66.8,38.57-2.41,4.18-73.48-45.43-75.66-41.65-2.54,4.4,87.6,42.76,84.21,48.62-2.92,5.05-77.5-50.28-80.07-45.83-2.41,4.17,81.06,40.07,78.14,45.12-1.64,2.84-72.54-47.79-75.53-42.6-1.61,2.79,78.75,38.77,75.85,43.8-1.45,2.5-74.51-39.92-76-37.4-3.56,6.16,81.14,42.2,79.13,45.69s-83.15-47-85-43.68c-2.92,5.06,73.21,37.37,71.09,41-2.72,4.71-69.71-38.26-71-36-2.83,4.91,73.54,34.5,70.09,40.47-2.11,3.66-71.51-44-74.29-39.21-1.69,2.92,77,38.83,74.54,43s-66.37-42.47-68.83-38.2c-2.34,4,86.69,43.15,83.7,48.33-2.79,4.83-88.55-51-90.78-47.18-2.62,4.54,93.8,46.34,90.41,52.2-2.51,4.34-88.77-55.22-91.29-50.85-3.22,5.57,81.32,41.81,79.09,45.67s-68.33-37.46-69.67-35.13c-2.57,4.45,69.66,32.44,66.29,38.27-1.91,3.31-62.18-39.39-63.79-36.6-3.43,5.95,69.27,34.74,67,38.68-2.1,3.63-66.65-39.06-69.32-34.43-2.05,3.55,80.95,41.28,78.59,45.37-3,5.27-81.66-51.07-83.64-47.65-1.7,2.94,86.74,46.16,85,49.1s-79.17-44.33-80.65-41.76c-3.48,6,70.88,36.94,69.16,39.93-2,3.5-76.45-45.58-79.39-40.49-3.52,6.1,91.84,47,89.21,51.51-2.72,4.71-71.92-38.81-73.85-35.46-2.61,4.52,65.77,32.25,63.29,36.54-1.49,2.57-72.77-39.35-74.35-36.61-2.31,4,83.29,40.14,79.85,46.1-2.49,4.31-66.93-40-68.41-37.39-3.49,6,74.34,36.25,71.45,41.25-1.72,3-75.25-45.35-76.6-43-3.13,5.43,77.2,40.76,75.55,43.62-1.46,2.53-81.89-49.56-84.39-45.22s79.46,41.44,77.54,44.77c-1.72,3-66.86-44.11-69.37-39.77-3.58,6.21,80.69,42,78.72,45.45-2.32,4-79.84-50.73-82.41-46.28-2.06,3.57,81.2,41.46,78.85,45.53-2.15,3.73-68.14-41.11-70.36-37.25S459.52,398,456.1,404c-2.3,4-81.19-47.52-82.86-44.62-3.4,5.89,82.42,41.56,79.81,46.08s-82-46.74-83.48-44.25c-2.48,4.3,83.06,39.67,79.47,45.88-1.46,2.53-62.9-37-64.85-33.6-1.73,3,68.64,35.82,67,38.68-2.62,4.54-67.63-42.38-70.18-38-2,3.45,78.08,37.68,74.88,43.23-2.07,3.59-80.53-50.56-83.51-45.4-3.22,5.58,89.75,47.85,88,50.83-1.92,3.32-77-47.77-78.81-44.64-2.85,4.93,68.92,32.91,65.94,38.07-1.64,2.83-74.76-43.17-76.9-39.46-2.35,4.06,90.67,47,88.35,51-2.06,3.57-77.32-50.61-80.14-45.72-1.92,3.32,79.51,41.37,77.55,44.77-2.23,3.86-79.12-42.91-80.56-40.43-3.28,5.68,76.4,38.07,73.78,42.6-1.33,2.31-64.87-43-67.52-38.39-3.46,6,72.42,33.76,68.93,39.8-2.56,4.43-72.56-43.55-73.84-41.33-2.37,4.1,75.38,35.26,71.8,41.46-2.1,3.63-73.33-42.7-74.82-40.12-3.31,5.74,77.67,37.61,74.54,43-1.63,2.82-70.76-39-73.1-35-3.35,5.81,75.53,36.2,72.32,41.76-2.56,4.44-70.82-38.53-72.13-36.28-3.34,5.79,86.4,42.53,83.22,48-2.15,3.73-73.26-40.9-75.12-37.68-2.82,4.88,79.51,38,76.09,43.93-2.71,4.69-79.5-45.51-82.06-41.07-2.94,5.1,80.18,42,78.34,45.23-1.46,2.53-76.87-45.72-79.46-41.24-2.48,4.29,74.34,36.48,71.55,41.31-1.26,2.18-63.66-40.56-66.12-36.29-1.66,2.87,72,34.45,69,39.81-2.4,4.16-69.46-42.74-71.36-39.46-2.19,3.8,76.38,35.62,72.7,42-2.28,4-71.44-44.92-74.29-40-1.64,2.84,81.14,38.89,77.69,44.86-2.23,3.86-84-47.53-86.33-43.56-1.78,3.09,88,45.62,85.74,49.5-3,5.16-81.55-50.48-84.2-45.9-2.24,3.87,85.89,45.19,84,48.49-2.26,3.91-82.42-49.5-84.51-45.88-3.07,5.31,87.2,46.66,85.61,49.43-3.16,5.48-78.67-48.77-80.37-45.83-3.18,5.5,81.69,38.93,78.13,45.11-2.69,4.66-74.47-41-76.13-38.11-2.25,3.9,79.23,39.18,76.38,44.1s-77.16-46.12-79.39-42.25c-2.34,4,83,43.5,81.06,46.8-1.41,2.45-68-41.81-70.33-37.78-1.87,3.23,79.81,40.23,77.27,44.62-2,3.5-84.29-50.09-87.33-44.83-3.41,5.91,79.48,40.83,77.29,44.63-2,3.51-72.24-46.84-74.62-42.73-1.86,3.22,74,39,72.36,41.78-2.91,5-73.52-42.39-75.78-38.48-2.61,4.51,67.24,32.54,64.52,37.25-2.07,3.59-64-39.24-66.22-35.46-1.28,2.21,61.86,31.34,60,34.63-1.15,2-58.84-35.56-60-33.49-2.69,4.66,68.29,36.57,67.05,38.71-1.68,2.91-66.24-37.63-68.72-33.33-1.71,3,51.17,26.94,50,28.89-1.57,2.72-41.44-24.49-43-21.72-1.15,2,49,25.23,47.68,27.53-1.53,2.65-47.31-24-48.48-22-1,1.68,33.86,17.74,33.08,19.1s-39.92-21.3-41.15-19.17c-.69,1.2,31.35,16.41,30.62,17.68-.56,1-17-4-17.32-3.46-.7,1.22,12.34,5.45,11.61,6.71-.37.64-16.41-5.44-16.82-4.72-.57,1,3.5.48,2.83,1.63-.33.57-10.83-3.08-11.09-2.62s13.06,7,12.81,7.4c-.38.66-12.4-2.66-12.81-1.95,0,0,3.41,1.92,3.39,2" fill="none" stroke="#999" stroke-linecap="round" stroke-linejoin="round" stroke-width="1.27"/><path d="M461.39,500.44c1.67,10.74-91.08,6.66-90.63,3.18-1.48,4.71-1.41-490.14.56-491.31-.62-.7,91.53-10.83,89.94,7.32C462.36,15.67,462.12,505.41,461.39,500.44Z" fill="none" stroke="#666" stroke-width="3.18"/><path d="M464.17,509.2c-3.39-5.52-94.77-10.09-95.34,2.84,1.19-8.6,1.14-499,1.65-507.84,1.57,3,90.94,11.56,92.72-2.38C463.21,13.51,462.43,506,464.17,509.2Z" fill="none" stroke="#4c4c4c" stroke-width="2.39"/></svg>